<?xml version="1.0" encoding="UTF-8" standalone="no"?>
<svg
   xmlns:dc="http://purl.org/dc/elements/1.1/"
   xmlns:cc="http://creativecommons.org/ns#"
   xmlns:rdf="http://www.w3.org/1999/02/22-rdf-syntax-ns#"
   xmlns:svg="http://www.w3.org/2000/svg"
   xmlns="http://www.w3.org/2000/svg"
   xmlns:sodipodi="http://sodipodi.sourceforge.net/DTD/sodipodi-0.dtd"
   xmlns:inkscape="http://www.inkscape.org/namespaces/inkscape"
   id="svg163"
   version="1.2"
   viewBox="0 0 2480 1928"
   width="209.973mm"
   height="163.237mm"
   sodipodi:docname="Wyoming District Courts.svg"
   inkscape:version="0.92.3 (2405546, 2018-03-11)">
  <sodipodi:namedview
     pagecolor="#ffffff"
     bordercolor="#666666"
     borderopacity="1"
     objecttolerance="10"
     gridtolerance="10"
     guidetolerance="10"
     inkscape:pageopacity="0"
     inkscape:pageshadow="2"
     inkscape:window-width="1999"
     inkscape:window-height="1806"
     id="namedview8618"
     showgrid="false"
     inkscape:zoom="0.87911561"
     inkscape:cx="312.05239"
     inkscape:cy="126.47828"
     inkscape:window-x="1786"
     inkscape:window-y="19"
     inkscape:window-maximized="0"
     inkscape:current-layer="svg163" />
  <metadata
     id="metadata167">
    <rdf:RDF>
      <cc:Work
         rdf:about="">
        <dc:format>image/svg+xml</dc:format>
        <dc:type
           rdf:resource="http://purl.org/dc/dcmitype/StillImage" />
        <dc:title />
      </cc:Work>
    </rdf:RDF>
  </metadata>
  <defs
     id="defs2" />
  <defs
     id="defs15" />
  <defs
     id="defs38" />
  <path
     style="font-style:normal;font-weight:400;font-size:32.8125px;font-family:'MS Shell Dlg 2';fill:#e3e3e3;fill-opacity:0.97254902;stroke:#000000;stroke-width:5;stroke-linecap:square;stroke-linejoin:round;stroke-opacity:1"
     id="Park"
     vector-effect="none"
     d="m 124.49036,119.53446 1.58864,-29.951655 -0.14297,-1.047564 1.44668,-28.578269 0.036,-0.70924 3.22027,0.117474 0.25095,0.0091 82.42145,2.418555 7.40433,1.624235 3.39624,1.014271 14.36976,3.040416 48.58307,1.736509 1.67862,-0.04239 18.78378,0.677247 27.0879,0.241846 12.8861,-2.626709 6.51653,0.898498 5.62474,0.13197 11.94231,1.408983 18.71979,0.777825 9.01397,0.370217 28.52258,-2.613112 26.62101,0.873403 0.25494,0.03549 7.63628,0.366318 h 10e-4 l 2.05054,0.09808 10.50464,0.279237 27.42782,0.71104 6.48155,0.301132 17.99994,0.828314 0.064,0.0027 15.17558,0.647754 27.68877,0.26894 28.40861,0.634057 59.75955,0.320628 3.40523,0.196356 33.84139,0.393811 1.86458,0.0094 22.45694,0.327626 28.41561,0.389513 6.44655,2.938039 6.50354,0.110075 0.095,0.0016 1.43268,0.0217 34.19131,0.497088 34.11732,0.455697 50.59661,0.601565 0.25195,0.0028 19.63558,0.209453 -0.16597,0.66615 -0.01,0.406908 -0.004,0.288236 -0.012,0.552575 -0.17296,5.832288 0.11697,2.642705 0.048,0.995776 -0.01,2.84466 -0.095,1.191132 -0.10098,9.771797 0.086,9.7728 0.04,0.35692 0.043,0.19396 -0.26194,19.38464 0.029,2.88335 8.97398,0.12997 -0.60486,49.09495 -0.083,1.81259 -0.38592,30.45215 0.05,0.34092 -0.051,0.77483 -0.10397,12.81411 -0.087,4.93589 -0.39291,24.69345 -0.26894,22.67389 -0.022,0.13997 -0.079,9.27991 6.11062,0.12897 -0.30993,24.8854 -0.021,1.60964 -0.18696,14.45575 -0.002,0.14197 -0.19995,15.29155 -0.34193,23.20178 -1.00077,78.14042 7.48331,0.097 -0.54287,39.84803 -33.73541,-0.56388 -1.3417,0.088 -42.82236,-0.66285 -0.42191,39.62509 -40.11597,-0.52888 0.41591,38.53032 -28.41061,-0.4469 -1.92957,-0.20995 -27.90172,-0.20995 -0.37991,29.70431 -0.55588,9.13595 -12.82511,0.48989 -45.13084,-0.92179 -0.036,1.14874 -13.07206,-0.14897 0.03,-0.38191 -1.17773,-1.95856 0.012,-1.42268 -0.17296,-0.66385 0.35192,-0.4689 -0.54787,-0.50488 -1.31171,-1.72562 -0.23295,-1.51066 0.43591,-0.69584 -0.25195,-0.60286 -0.50688,-0.27294 -0.56388,-0.81382 -1.23372,-0.32893 -0.4439,-0.55687 -0.57887,-0.17996 -1.00377,-0.94679 -1.62564,0.82882 -1.17173,0.071 -0.79882,-0.19196 -0.73584,0.18296 -1.27071,-0.26094 -0.4689,-0.50288 -3.87612,-0.74184 -0.31793,-0.46289 0.075,-1.20873 -0.19895,-0.99178 0.26794,-0.35192 -1.17474,-0.52988 -0.31893,-0.95579 0.27294,-1.62963 0.51288,-0.24894 -0.8698,-0.99878 -0.33792,-2.02654 -0.4439,-1.11875 0.092,-0.96778 -0.38992,-1.16274 0.31093,-0.098 0.59687,-1.04476 -0.19996,-0.69685 0.098,-0.95678 -0.71084,-0.96478 -0.90879,-0.84781 -0.31893,-0.62286 -1.26272,-0.11098 -2.47444,0.084 -1.63163,-0.4419 -0.53388,-0.34692 -1.26672,-1.84258 0.27494,-1.60864 -0.52688,-0.74384 -0.86381,-2.43345 0.4529,-1.3057 -1.30371,-0.42891 -0.61186,-0.50988 -0.29793,-1.44468 -0.4539,-0.92679 -0.96578,0.079 -1.60464,-0.12097 -1.7686,-0.40391 -2.2365,-1.83858 -0.78282,-1.28372 -0.53988,-1.3237 -0.38791,-2.50543 -0.37892,-1.3307 -0.48589,-0.94879 -0.91779,-0.015 -2.05954,0.34792 -1.04676,0.82182 -1.11775,-0.17896 -1.43568,-0.72884 -1.84658,-0.52388 -1.26572,-0.71684 0.007,-0.94079 0.53388,-1.01977 0.12297,-0.99077 -0.50588,-0.77983 -0.13897,-2.06353 -1.03377,-1.68162 -0.76683,0.31492 -1.12275,-0.03 -1.7736,-0.35692 -0.76782,0.21695 -0.75183,1.28171 -2.14152,1.27772 -0.32893,0.58087 -1.21672,0.99777 -1.48167,0.11598 -1.45267,-0.32093 -2.02955,-1.44168 -0.52388,-0.23794 -0.92079,-1.24272 -1.14974,-0.49889 -1.63364,-1.3417 -0.97078,-2.2455 -0.59286,-0.70384 -0.84681,-0.45689 -0.80482,-1.30671 -0.013,-0.68485 -0.95878,0.004 -2.38447,0.26794 -1.44967,1.23373 -0.95778,1.36669 -1.08476,0.05 -1.18373,-0.18496 -0.63186,1.72661 -0.56188,0.37492 -1.43267,1.86458 -0.041,0.71384 -1.10675,1.56364 -2.01555,1.20073 -1.11475,-0.23494 -1.24772,-1.46867 -0.37092,-0.93979 -0.63885,-0.8838 -1.84859,-1.53866 -0.4459,-0.078 -1.06276,0.47489 -0.62786,1.03777 0.082,1.14774 0.51488,1.53866 -0.38691,1.35669 -0.83781,1.24872 -0.81682,0.83781 -0.58387,0.97978 -0.22595,0.95079 -2.11352,0.73183 -0.71284,-0.056 -1.05676,-0.67984 -1.00078,0.098 -1.58864,0.68884 -0.93979,1.15374 -0.57687,0.22695 -1.14274,-0.28194 -0.8808,0.8888 -0.18096,0.70884 -0.51889,0.59087 -0.11097,1.01877 -0.4499,1.12175 -0.77183,0.74483 -1.3157,1.83559 0.03,1.98655 -0.11797,0.94279 -0.58187,2.04254 0.38591,0.92579 0.49989,3.21428 -1.09175,2.41745 -1.05377,0.87581 -0.66085,0.30193 -1.72761,-0.93779 -0.14897,0.24794 -0.10697,1.93057 -0.17896,0.55587 -0.98978,1.25272 -0.54088,1.55065 0.19296,1.46867 0.38891,0.71484 0.25494,1.47767 1.22173,1.29471 0.11897,2.2265 -0.52188,1.41068 0.39491,0.53088 -0.16196,0.93179 -2.01055,0.22695 -0.57287,0.70784 -0.8928,0.33592 -1.69062,-0.083 -1.25872,-0.67984 -0.4429,0.33692 -0.69184,1.66462 -1.91657,0.12898 -2.46844,-0.83082 -1.23972,1.92557 -0.79383,0.37192 -1.68262,-0.35292 -0.85281,-0.75384 -1.12774,0.26894 -0.67885,1.22573 -0.13897,0.75983 -0.76183,-0.038 -0.26794,-0.43291 -0.64285,0.26494 -1.3237,0.036 -0.9098,1.37769 -0.037,0.75882 -0.40491,0.49289 -1.86358,-0.31592 -0.36792,0.13696 -1.19873,1.14875 -1.49366,1.69162 -0.32993,1.21772 -0.35392,0.36592 -1.44167,0.013 -0.4599,-0.52889 -1.69362,-0.99677 -0.16496,0.98178 -0.50489,0.8678 -1.79459,1.40569 -2.62941,0.4249 -0.4369,0.86481 -0.022,1.34369 -0.85281,0.60087 -1.04776,0.38791 -0.41591,1.53965 -0.73983,-0.8748 -1.30571,-0.47089 -0.58886,-0.53088 -1.00478,-0.42091 -0.49789,-0.91479 -0.58586,-0.27394 -1.23473,-0.085 -0.97478,-0.26194 -1.19973,-1.38169 -0.21095,-0.61586 -1.22072,-0.8838 -0.70085,0.27793 -1.98455,-0.51688 -0.30993,-0.74683 -0.031,-1.40169 0.15096,-1.3017 -0.24494,-0.23295 -0.77183,-0.094 -0.33892,0.83481 -1.3597,0.12897 -1.71261,1.17174 -0.47289,0.098 -0.81282,-0.4649 -0.96079,-1.03577 -0.55787,-0.14396 -0.98278,-0.75583 -1.3487,-1.7696 0.41591,-1.75461 0.037,-1.09875 0.67185,-0.81582 1.14574,-0.17096 -1.3307,-1.01977 -0.78682,-1.09875 -0.027,-1.38369 0.53488,-1.53766 1.27771,-0.4249 0.29793,-1.02977 0.8978,-0.69084 1.07476,-0.017 1.02077,0.28794 1.10775,-0.82782 1.03876,-0.24094 1.06876,0.19795 0.61087,-0.22595 1.21072,0.057 0.83082,-0.83881 0.78982,-0.23795 0.51488,-0.77782 1.23573,-0.4589 0.56987,-0.4609 -0.97878,-0.67184 -1.41568,-1.87858 -2.36147,0.23095 -0.97078,-2.12852 0.005,-0.61587 0.52489,-0.80981 0.51088,-0.26594 1.09376,0.08 0.26894,-0.92079 2.6394,-1.43768 0.14497,-0.63986 -0.4399,-0.59486 -1.89658,-1.7956 -1.11374,0.075 -0.025,-0.60986 -1.15874,-0.69284 -0.51688,-2.37747 -1.47067,0.13797 -0.33493,-0.61886 -1.37969,-0.48689 -1.67262,-1.46867 -2.38246,-0.30293 -1.3257,-0.031 0.70084,-0.83082 0.96878,-0.4519 1.24672,-1.21972 0.19496,-0.57187 0.65985,-0.12198 -0.006,-0.80381 -0.66885,-1.21573 0.23994,-0.31593 -0.10897,-0.9058 0.4219,-0.71783 -0.26494,-1.83759 -1.09375,-0.70784 -0.37092,-0.67685 0.78183,-1.11175 -1.53566,0.74483 -1.43667,-0.61886 -1.57365,-0.10197 -0.51188,-0.42191 -1.59365,-0.38391 -0.46289,-1.88558 0.058,-0.65585 1.79859,-1.26972 0.23095,-0.63685 1.06976,-0.95879 0.52488,0.087 0.94379,-0.4259 0.65585,-0.71984 -0.19396,-1.17373 0.39991,-0.96679 -0.068,-0.68884 0.98378,-0.53388 -0.14997,-0.86281 -0.70784,-1.25671 -0.28693,-1.3687 -1.07876,0.28094 -2.87535,1.70962 -0.9218,0.015 -1.07276,0.51689 -1.63563,1.26371 -1.25172,0.092 -2.52043,0.71284 -1.59064,0.11897 -1.51266,-0.053 -2.6624,0.21695 -2.27049,-0.22795 -1.20273,0.12897 -1.74661,-1.7956 -0.64885,-0.4209 -0.85481,0.054 -0.40991,-0.4679 -0.55087,-1.54065 -1.22773,-1.38669 -1.89057,-0.074 -1.38369,-1.10775 -0.76783,-0.36892 -1.10375,-1.26472 -1.07776,-0.21995 -2.60641,1.3507 -0.41091,0.90979 -0.52688,0.43491 -0.80082,1.18773 -1.26571,0.46989 -2.03754,0.062 -1.99555,1.90757 -0.63286,0.33193 -1.22073,-0.25395 -1.85558,-1.28771 -0.49289,-1.05676 -0.21595,-0.36392 0.17796,-1.74061 0.4319,-0.73383 0.048,-0.75183 -0.29393,-0.52288 -0.18696,-1.39269 -0.70784,-0.15397 -1.84859,0.21596 -0.70184,-0.33293 -1.68562,0.17696 -0.4339,-0.63886 0.052,-2.99732 -0.16197,-1.12375 0.18496,-0.84481 -0.39791,-0.77282 -0.73483,-0.33393 -0.4329,-0.68384 0.066,-1.20573 -0.99777,-1.28171 -0.28994,-1.17174 -1.42368,-2.18951 -0.078,-0.67285 0.48089,-1.01577 -0.034,-0.4589 -0.59687,-0.69684 -0.66885,-0.30693 -1.26671,-0.026 -1.42868,-0.66285 -0.35492,-0.68885 -0.64186,-0.23195 -0.55587,-1.04076 -0.4469,-0.17896 -0.92079,0.48089 1.35769,-48.65605 0.17896,-7.07941 -21.3412,-0.59586 0.089,-0.9208 1.04777,-0.094 0.004,-0.59987 -0.87981,-0.30093 -0.47989,0.20895 -0.36791,-0.62486 0.33892,-0.67085 -0.15097,-0.50588 -0.79682,-0.096 -0.20895,-0.4649 0.36992,-0.4449 -0.091,-0.53188 -0.70784,-0.029 -0.19496,0.47389 -0.10698,-0.85081 0.64886,-1.36969 -0.041,-1.11875 -0.96978,-0.23694 0.69184,-0.82782 0.72184,-0.005 -0.16996,-0.62086 -0.4419,-0.14096 -0.17097,-1.22973 -0.38891,-0.31993 -0.045,-0.64685 1.04177,-0.62586 0.47189,0.069 0.76283,-0.51789 0.14297,-0.99277 -0.4769,-0.20996 0.30693,-0.84181 0.94579,-0.05 0.69585,-0.75183 -0.16997,-0.53088 -1.06176,-0.74583 -0.40891,-1.22772 -0.47789,-0.20396 0.043,-0.4149 0.87681,0.10497 -0.042,-0.76982 0.25795,-0.29794 1.00477,-0.11497 0.52388,-0.87281 1.17774,0.69685 0.63985,-0.12697 0.26894,-0.43691 0.10898,-1.01977 0.76983,-0.8508 0.08,-0.82382 -0.9198,-0.41791 -0.64585,0.52889 -1.38169,0.13297 -0.21595,0.4149 0.13997,0.94679 -0.77683,0.25094 0.076,-1.10975 -0.85781,-0.79582 0.12897,-0.84081 1.05576,-0.12497 0.42491,-0.24794 0.18795,-0.62386 -0.35692,-0.41891 -1.20572,-0.56887 -1.20573,-0.082 -0.049,-0.9098 0.63785,-0.51088 1.88258,1.09775 1.17074,0.49289 0.98478,-0.76983 -0.001,-0.77183 -0.33593,-0.56987 -0.36692,-1.38069 -0.81381,-0.60586 -0.57387,0.097 -0.50589,0.85881 -0.62986,-0.10898 -0.56587,-0.98778 -0.53588,-0.49289 -0.25494,-0.84081 0.12397,-0.80482 0.66385,-0.92779 0.8748,-0.049 0.51389,-0.37391 0.20795,-0.61786 0.68185,0.041 0.73483,0.45889 0.49889,0.013 0.21595,-0.4489 -1.16074,-1.26771 -0.19595,-1.42968 -0.23095,-0.20695 -1.25772,0.28093 -0.65285,1.18474 -0.4649,0.54487 -0.49888,0.14797 0.088,-0.98178 -0.19396,-0.94379 -0.30893,-0.38591 -0.16197,-0.8718 -0.52188,-0.52888 -0.021,-0.66186 -0.39891,-1.02577 -1.09176,-0.75483 -0.22195,-0.37991 0.62986,-1.21073 0.036,-0.52788 -0.8908,-0.74883 -0.18795,-1.06476 -0.51789,-0.78282 -0.4469,-0.22095 0.24095,-1.25572 1.25772,-0.61286 0.071,-0.42291 -0.39191,-1.20373 0.67485,-1.13574 -0.12998,-0.42491 0.39492,-1.13874 -0.76283,-0.30893 -0.061,0.53288 -0.72883,0.17396 -0.57188,-0.4599 -0.4119,-0.8688 -0.82982,-0.51389 -0.32092,-0.47189 -0.38092,-1.82159 0.48589,-0.067 0.42091,-0.62486 0.19995,-1.06776 0.50089,-0.51789 -1.21173,-0.71084 -0.46189,-0.048 -0.80082,-0.70884 -0.023,-0.57187 -0.4169,-0.15996 -0.35992,-0.97678 -0.004,-0.54388 2.69839,-0.58387 0.50989,-1.25871 -1.48867,-1.22573 0.23295,-1.17873 0.03,-1.01178 -0.8798,-1.93256 -0.79382,-1.17474 0.30993,-0.17096 -0.53988,-0.93279 -0.63086,-0.40591 -0.47889,0.08 -2.18251,-1.87558 -0.19096,-0.84781 -1.26671,-0.49189 -0.17196,0.75483 -0.79282,0.8928 -0.34693,0.08 -0.58986,-0.13897 -0.60387,-0.63686 -0.52388,-0.21995 0.09,-0.69084 0.76383,-0.41791 0.18196,-0.77082 -0.59287,-0.93479 -0.77482,0.024 -0.65786,0.32593 -0.4229,0.92279 -0.41291,0.12997 -0.66085,-0.31393 -0.16796,-1.40068 0.36492,-0.9148 0.56587,-0.4419 -0.23695,-0.59386 -1.28971,0.25594 -0.25094,0.54888 0.33192,0.56087 -0.12197,1.54865 -0.66285,0.91879 -0.4269,0.14697 -0.29494,-0.064 -2.51243,-2.76038 -0.33793,-0.055 -0.8658,0.51888 -0.60087,-0.12297 0.18096,-0.99578 -0.79782,-0.93978 -0.51288,-1.42668 -0.66685,-0.62086 0.34192,-0.25995 1.22972,-0.086 0.53189,0.4509 -0.034,-0.50288 -0.92679,-1.39669 0.37992,0.4659 0.79082,-1.13375 0.27394,0.37992 0.16196,-1.30071 0.27394,0.93979 -0.13297,-1.14875 -0.51889,-0.15296 0.43091,-0.50389 -0.31493,-0.55487 0.036,-1.11275 -1.04776,-0.63086 -3.90512,-1.3517 -0.65786,-0.4349 -1.05776,-1.25871 -0.4229,-1.15974 -0.23295,-1.8096 0.50589,-0.79082 0.21595,-1.7876 -0.37892,-0.98977 -0.51088,-0.82482 0.16696,-0.80082 -0.49089,-2.31548 0.47589,-1.20972 -0.19995,-2.40946 -0.53788,-1.82559 0.34892,-1.04877 -0.029,-0.52488 -0.60187,-0.84881 -0.54787,-1.22572 -0.4749,-0.48189 -0.46489,-0.8768 -1.71662,-1.20873 -0.18595,-0.76783 -0.4699,-0.48389 -2.32048,-0.98578 -1.05276,-0.15096 0.16696,-2.02555 -0.012,-1.40168 -0.36592,-1.39569 0.051,-1.92557 -1.11075,-1.34569 -0.48589,-0.82082 -1.67763,-0.81282 -0.65385,-0.16596 -1.50366,-0.82881 -1.06076,-0.031 -0.83881,-0.37792 -1.01078,-1.13075 -0.99677,-0.60686 -0.68385,-0.76183 -0.36792,-1.7516 -0.52788,-1.05177 -0.54387,-0.66885 -0.83582,-0.56187 -0.63485,-0.99677 -0.13797,-0.77083 0.24994,-1.53166 0.8998,-0.20995 0.4189,-1.12975 -0.081,-2.12452 1.3457,-3.60319 0.019,-0.70784 -0.36192,-3.25626 0.25694,-2.29849 -0.34792,-2.2285 0.74183,-0.99677 0.53988,0.19595 0.67385,-0.15796 0.65085,-0.97578 0.42491,-1.72461 -0.28794,-2.62241 -0.26794,-1.27971 -0.067,-1.05677 0.80182,-1.96155 1.19573,-1.49167 0.14596,-0.35192 -0.07,-1.47167 -0.4279,-1.71661 0.37191,-0.92579 -0.09,-1.38669 0.93379,-2.17051 -0.10397,-0.83482 -0.58487,-1.10775 -1.39869,-2.03854 -0.73583,-0.8888 -0.79482,-0.69084 -0.72784,-0.39691 -0.4479,0.31293 -1.02577,0.022 -0.55087,-0.38091 -0.33793,-0.58587 0.13797,-0.8768 0.4389,-0.9028 0.4639,-0.4509 -0.045,-1.06076 1.57764,-0.28993 0.39691,-0.71484 -0.046,-0.80082 -0.56687,-1.13875 -1.21972,-1.48466 -1.74461,-1.59464 -2.50544,-1.73061 -1.36969,-0.68985 -0.67885,-0.16896 -0.91779,0.63786 -1.11775,-0.18296 -0.37591,0.13797 -2.14352,0.14196 -0.60087,0.26594 -0.18895,0.67485 0.066,1.39569 -0.39991,-0.011 -0.19795,0.49789 -1.14275,-0.47689 -0.73083,-0.046 -1.7706,-0.80782 -2.65341,-0.95579 -2.1985,-0.57987 -1.03277,-1.19073 -2.15452,-1.60664 -2.1915,-1.3087 -2.27049,-0.75383 -0.056,-0.61686 0.70184,-0.55788 0.60587,-0.17396 0.77082,-0.58687 1.19374,-0.032 0.4089,-0.47989 0.24695,-0.57487 0.10597,-1.67263 -0.98178,-1.35369 -0.31592,-1.19773 0.52988,-1.24072 -93.59794,-3.05931 1.3327,-37.37759 -24.8684,-0.95979 -1.60764,-0.21895 -97.3031,-3.45022 0.99177,-26.44905 0.14697,-11.01752 1.92257,-52.27024"
     fill-rule="evenodd" />
  <path
     style="font-style:normal;font-weight:400;font-size:32.8125px;font-family:'MS Shell Dlg 2';fill:#e3e3e3;fill-opacity:0.97254902;stroke:#000000;stroke-width:5;stroke-linecap:square;stroke-linejoin:round;stroke-opacity:1"
     id="Big_Horn"
     vector-effect="none"
     d="m 900.97761,81.868341 0.012,-0.552575 0.004,-0.288236 0.01,-0.406908 0.16597,-0.66615 13.62093,0.137469 3.9951,0.007 20.74333,0.643756 72.97756,0.496688 6.9285,0.415406 0.02,0.0016 3.5692,-0.304332 6.2486,-0.09698 21.9751,-0.05729 47.2993,0.250544 1.0598,-0.146967 27.2939,0.272738 0.1399,0.597466 0.6299,0.684946 -0.09,0.703841 0.6299,0.513285 1.8096,-0.4447 0.9098,0.438301 1.6696,2.099328 0.9898,-0.334225 1.4996,1.55775 0.5799,0.26444 0.6898,1.062061 -0.6198,2.033942 0.8898,2.70979 -0.02,1.492465 0.5299,0.79592 0.1999,1.040866 0.5299,1.342698 0.06,0.775825 -0.3899,1.443677 0.1799,0.8758 -0.7398,1.87558 0.2,0.92779 -0.13,0.73284 -0.6099,0.99078 0.02,1.2917 -0.4099,0.94779 0.2,1.3217 -0.12,1.18674 0.06,1.53665 0.5499,0.58187 0.8198,0.30793 1.7196,1.3447 0.8798,1.65063 0.9598,0.38791 0.6298,0.56087 1.2897,1.7746 1.0898,0.95079 1.2597,0.40191 -0.19,0.60186 0.07,2.46245 0.25,0.8868 0.9198,0.57287 -0.3799,1.3187 0.6798,1.91057 -0.9698,-0.10097 -1.0497,0.72183 -0.4,0.9148 -0.5098,0.24794 -0.9498,-0.067 -0.19,1.64463 0.26,1.70961 -0.15,0.31293 0.02,2.11853 -0.5499,1.7456 -0.7698,1.11575 -0.05,0.74084 0.7098,1.22272 0.32,1.08176 1.3897,0.47389 0.7598,-0.003 1.6596,2.33648 1.2297,0.76282 0.4699,-0.023 0.5799,1.37269 0.2799,2.35747 0.34,1.11375 1.0397,1.48666 1.7596,0.69985 0.06,0.92679 -0.4299,1.42368 0.4599,1.11175 0.6699,0.32292 0.4698,1.54966 -0.1,1.05576 -0.8598,0.94579 -0.5999,1.57164 1.8896,-0.20695 0.6498,0.36492 0.14,0.59386 -1.1897,0.18696 -0.4099,0.65285 0.9797,0.4819 1.4897,-0.29294 1.2597,0.63086 0.4199,1.01077 -0.3999,3.14929 -0.2199,0.56688 -1.0498,1.03776 -2.1195,1.7716 -0.8498,0.80382 -0.29,0.59787 -0.3599,2.14052 0.08,2.00354 0.4499,0.12498 1.9396,-0.67985 0.7698,0.087 1.9895,0.74883 1.1098,0.29094 1.7396,1.61963 2.3995,1.00078 0.9197,1.35669 1.2798,0.15997 1.0397,1.35969 2.9194,2.00755 0.4599,0.14796 1.0797,-0.37691 1.4097,-0.20895 2.0495,0.098 0.9098,0.4609 2.4095,0.83181 0.3499,1.59364 0.3599,0.63286 -0.4399,1.75961 0.33,1.53965 -0.4899,0.084 0.5998,0.67985 2.0796,1.00477 0.04,0.76083 -0.7099,0.8988 -0.03,0.8638 -0.3899,1.18674 0.2999,0.53588 1.3197,1.16073 0.1,0.35492 -0.4099,1.75361 -0.3099,1.83159 0.4099,2.00855 -1.0098,1.71861 -0.9698,0.38991 -0.1999,0.36292 1.0498,1.13974 0.7398,1.55765 0.6898,0.9098 0.6099,0.48189 1.1997,0.49889 0.4299,-0.058 0.7898,-0.8678 1.8996,-0.4839 0.3499,0.40791 1.0698,0.51189 1.9396,1.67262 1.5696,0.58987 1.0998,0.079 1.1497,0.57987 1.1298,0.86581 1.3097,0.44989 0.6498,-1.39468 0.3399,-0.11798 0.9598,0.30194 0.5799,0.39991 1.4097,0.57487 0.8698,-0.26594 0.5498,1.44267 -0.09,2.84836 -0.9798,1.51866 1.0797,2.29848 0.8898,0.18496 1.1198,1.11375 0.4699,1.13374 0.6698,1.05477 0.4599,0.30193 0.32,0.044 0.5098,-0.69584 1.1098,-0.10098 1.2697,-0.75983 0.8098,-0.26494 0.29,-0.30093 0.1,-1.3437 0.27,-0.9078 1.1297,-0.46889 0.28,-0.8928 2.3594,-0.4289 0.9098,0.77282 0.8198,0.085 1.0098,-0.4459 1.6396,-0.38191 1.2698,0.37592 0.9697,-0.28494 0.9398,-1.15774 -0.01,-1.42668 1.2198,-1.11075 0.5598,0.4519 0.6199,1.05376 0.9898,0.63586 1.4097,0.70484 0.9797,0.19996 1.1098,-0.38292 0.7698,0.15997 1.1797,1.28671 0.4299,1.44467 0.6999,0.27894 2.3695,-0.64386 0.5598,0.37492 0.8198,1.42468 0.9798,1.23272 0.8698,0.15896 1.0598,-0.28393 2.3795,1.10275 1.1397,0.99778 2.3795,-0.086 -0.13,2.36246 0.5399,1.27272 -0.33,1.64063 1.1398,0.4419 0.7498,0.028 1.2797,0.4659 0.9298,-0.023 1.3297,-0.64085 1.1698,0.37591 0.6098,0.85881 1.1798,0.95578 0.9397,0.38092 -1.0697,1.99955 -1.9196,1.71361 -0.2699,0.48289 -0.3999,-0.19895 -0.8498,0.27794 -0.3999,1.19473 0.1299,0.8598 1.6197,1.18074 0.07,0.41291 -0.1699,1.62563 0.5898,1.21373 -0.04,0.83881 1.3197,0.79782 1.2897,-0.40491 1.7596,0.24494 1.1597,-0.14796 1.3097,-1.00378 0.6899,-0.77682 0.4099,-1.06076 1.0197,-0.9198 0.9698,0.24495 0.7299,-0.21295 0.7398,2.26949 0.7298,0.70684 -0.1199,1.12874 0.6498,1.53966 0.08,0.57487 0.7298,1.15674 1.0798,0.36591 0.8498,1.14575 0.05,0.99477 0.3599,0.93479 0.6798,0.74683 1.4897,1.04577 0.7398,0.71484 0.42,-0.19896 1.4596,0.28494 1.8096,1.25272 0.23,0.69584 1.4596,0.025 1.2498,0.36692 1.8595,0.57587 1.7896,-0.52888 0.3,-0.30193 1.2197,-0.13897 0.06,-0.40291 -0.9198,-1.44367 3.3592,0.17496 0.34,0.18995 0.4499,1.13975 -0.09,2.23549 1.0997,1.11575 1.5097,0.50889 0.4699,0.4589 1.3397,-0.32793 1.7896,-0.096 1.9795,0.52688 1.3797,1.19273 3.0093,0.26994 -0.5298,2.50244 0.7998,0.8758 0.6098,1.44968 1.0398,0.4209 0.8398,0.73884 -0.5599,0.88979 0.9398,1.71762 0.22,0.83781 -0.29,0.62686 0.33,2.18951 0.5099,0.64485 0.04,1.89158 0.4998,1.11774 -0.02,0.67285 -0.5598,0.62386 1.9295,0.84681 0.6899,1.10875 0.9998,1.00977 -0.1,1.45168 0.4699,0.4259 1.0997,0.38891 0.5799,1.3687 0.8398,0.23494 2.9993,0.36692 0.6599,0.52088 0.6498,0.02 0.9098,-0.39991 1.1798,-1.69762 0.2799,0.22295 -0.1,1.85558 0.16,1.60964 0.8198,0.81982 1.0398,0.4479 0.4999,1.80859 -0.7999,1.68562 -0.5898,0.78382 0.02,0.69985 0.5698,0.18495 1.8796,1.67563 1.3297,0.97478 0.22,1.21672 0.6298,0.51989 0.5399,1.36969 1.4297,0.65285 1.6196,0.42391 0.6899,0.61786 1.6496,1.93556 -1.3997,2.01555 0.02,0.97078 0.4399,1.39269 v 1.03976 l -0.4399,1.81359 -2.1395,0.49389 0.1899,0.62986 0.8498,1.10175 0.7299,1.48967 -0.4899,0.94878 0.2099,0.72584 -0.4499,0.15397 0.36,0.55187 -0.22,0.76783 -0.6098,0.41091 0.2299,0.64685 -0.4999,1.38869 0.5599,0.37991 0.06,0.67085 0.5698,1.05077 0.7099,0.4429 0.9398,-0.56688 1.0897,0.092 0.9898,-0.30393 0.9898,0.52988 1.4397,-0.024 0.8798,-0.23395 0.3699,0.65985 0.9098,0.9028 -0.8698,1.54765 -0.5399,0.17996 0.11,0.4609 1.5296,0.29293 0.3999,0.56887 1.5497,-0.31493 1.5296,0.75883 0.6699,0.097 0.8698,0.72984 1.0498,1.97355 1.1597,0.56387 0.8298,-0.10997 0.8798,0.60786 1.1598,0.38692 1.1997,-0.83682 1.4996,-0.45989 1.2598,-0.21995 0.8898,0.10297 1.8795,-0.96078 0.8598,-1.55365 0.02,-1.02077 0.6799,0.17196 0.4699,1.01877 1.5596,0.77583 1.0498,-0.069 1.5396,-0.57887 0.6799,1.98156 -1.1797,2.78537 1.0097,0.75683 0.05,0.55088 -0.8598,0.64285 -0.2899,0.93479 0.05,1.83759 0.5199,1.11875 0.7098,0.46689 -0.1,1.20173 -0.4299,1.12575 0.12,1.10475 0.2399,0.37691 0.29,1.70362 0.1399,2.33647 0.22,0.61686 -0.22,1.53966 1.8496,0.13197 0.28,0.31293 1.3996,-0.16896 0.8199,-1.46767 1.1497,-0.71184 1.0897,0.10297 0.8499,1.08076 0.04,0.4669 0.8799,0.82081 0.7298,1.36769 0.6298,0.63086 -0.2699,1.54365 -0.8398,0.41891 -0.4199,0.57987 0.16,0.28593 -0.08,1.22373 -0.22,0.21295 0.13,0.84381 -0.4299,0.62086 0.02,0.75283 -0.3399,1.11675 1.0197,0.70584 0.8298,0.25994 1.6797,0.22395 0.3199,0.26594 -0.03,0.59487 0.4399,0.95178 0.5799,0.52589 -0.6599,0.26094 -1.3797,1.54065 -0.4499,0.15297 -1.2597,1.71961 -3.7791,0.75183 -0.35,1.3147 -0.8698,1.13075 v 0.69284 l 0.31,0.65586 -0.3899,0.96778 0.1399,0.35692 1.1398,0.4489 1.6996,0.12597 1.1897,1.55265 -0.1,1.97356 1.1998,1.35069 1.3697,-0.23794 0.7798,0.26594 0.6598,-0.034 1.0998,0.30393 0.7198,0.52489 0.4799,0.68484 -0.9098,0.78083 -0.07,1.89457 0.07,0.28894 1.3297,1.25571 0.7998,-0.65485 0.7099,-0.30793 1.8496,0.20195 -0.34,70.87405 -61.3361,-0.80881 -11.6274,0.055 -0.7499,-0.081 -99.3576,0.58087 -7.1084,-0.04 -2.1695,-0.007 -2.9494,-0.64685 -59.9365,-0.26594 -3.2692,0.02 -1.6497,-0.089 -1.8395,0.06 -52.0883,-0.4479 -10.8476,-0.077 -122.75634,-1.26172 -0.31793,0.048 -14.18581,-0.24594 -7.48331,-0.097 1.00077,-78.14042 0.34193,-23.20178 0.19995,-15.29155 0.002,-0.14197 0.18696,-14.45575 0.021,-1.60964 0.30993,-24.8854 -6.11062,-0.12897 0.079,-9.27991 0.022,-0.13997 0.26894,-22.67389 0.39291,-24.69345 0.087,-4.93589 0.10397,-12.81411 0.051,-0.77483 -0.05,-0.34092 0.38592,-30.45215 0.083,-1.81259 0.60486,-49.09495 -8.97398,-0.12997 -0.029,-2.88335 0.26194,-19.38464 -0.043,-0.19396 -0.04,-0.35692 -0.086,-9.7728 0.10098,-9.771801 0.095,-1.191132 0.01,-2.84466 -0.048,-0.995776 -0.11697,-2.642705 0.17296,-5.832288"
     fill-rule="evenodd" />
  <path
     style="font-style:normal;font-weight:400;font-size:32.8125px;font-family:'MS Shell Dlg 2';fill:#e3e3e3;fill-opacity:0.97254902;stroke:#000000;stroke-width:5;stroke-linecap:square;stroke-linejoin:round;stroke-opacity:1"
     id="Fremont"
     vector-effect="none"
     d="m 433.18589,514.75752 0.92079,-0.48089 0.4469,0.17896 0.55587,1.04076 0.64186,0.23195 0.35492,0.68885 1.42868,0.66285 1.26671,0.026 0.66885,0.30693 0.59687,0.69684 0.034,0.4589 -0.48089,1.01577 0.078,0.67285 1.42368,2.18951 0.28994,1.17174 0.99777,1.28171 -0.066,1.20573 0.4329,0.68384 0.73483,0.33393 0.39791,0.77282 -0.18496,0.84481 0.16197,1.12375 -0.052,2.99732 0.4339,0.63886 1.68562,-0.17696 0.70184,0.33293 1.84859,-0.21596 0.70784,0.15397 0.18696,1.39269 0.29393,0.52288 -0.048,0.75183 -0.4319,0.73383 -0.17796,1.74061 0.21595,0.36392 0.49289,1.05676 1.85558,1.28771 1.22073,0.25395 0.63286,-0.33193 1.99555,-1.90757 2.03754,-0.062 1.26571,-0.46989 0.80082,-1.18773 0.52688,-0.43491 0.41091,-0.90979 2.60641,-1.3507 1.07776,0.21995 1.10375,1.26472 0.76783,0.36892 1.38369,1.10775 1.89057,0.074 1.22773,1.38669 0.55087,1.54065 0.40991,0.4679 0.85481,-0.054 0.64885,0.4209 1.74661,1.7956 1.20273,-0.12897 2.27049,0.22795 2.6624,-0.21695 1.51266,0.053 1.59064,-0.11897 2.52043,-0.71284 1.25172,-0.092 1.63563,-1.26371 1.07276,-0.51689 0.9218,-0.015 2.87535,-1.70962 1.07876,-0.28094 0.28693,1.3687 0.70784,1.25671 0.14997,0.86281 -0.98378,0.53388 0.068,0.68884 -0.39991,0.96679 0.19396,1.17373 -0.65585,0.71984 -0.94379,0.4259 -0.52488,-0.087 -1.06976,0.95879 -0.23095,0.63685 -1.79859,1.26972 -0.058,0.65585 0.46289,1.88558 1.59365,0.38391 0.51188,0.42191 1.57365,0.10197 1.43667,0.61886 1.53566,-0.74483 -0.78183,1.11175 0.37092,0.67685 1.09375,0.70784 0.26494,1.83759 -0.4219,0.71783 0.10897,0.9058 -0.23994,0.31593 0.66885,1.21573 0.006,0.80381 -0.65985,0.12198 -0.19496,0.57187 -1.24672,1.21972 -0.96878,0.4519 -0.70084,0.83082 1.3257,0.031 2.38246,0.30293 1.67262,1.46867 1.37969,0.48689 0.33493,0.61886 1.47067,-0.13797 0.51688,2.37747 1.15874,0.69284 0.025,0.60986 1.11374,-0.075 1.89658,1.7956 0.4399,0.59486 -0.14497,0.63986 -2.6394,1.43768 -0.26894,0.92079 -1.09376,-0.08 -0.51088,0.26594 -0.52489,0.80981 -0.005,0.61587 0.97078,2.12852 2.36147,-0.23095 1.41568,1.87858 0.97878,0.67184 -0.56987,0.4609 -1.23573,0.4589 -0.51488,0.77782 -0.78982,0.23795 -0.83082,0.83881 -1.21072,-0.057 -0.61087,0.22595 -1.06876,-0.19795 -1.03876,0.24094 -1.10775,0.82782 -1.02077,-0.28794 -1.07476,0.017 -0.8978,0.69084 -0.29793,1.02977 -1.27771,0.4249 -0.53488,1.53766 0.027,1.38369 0.78682,1.09875 1.3307,1.01977 -1.14574,0.17096 -0.67185,0.81582 -0.037,1.09875 -0.41591,1.75461 1.3487,1.7696 0.98278,0.75583 0.55787,0.14396 0.96079,1.03577 0.81282,0.4649 0.47289,-0.098 1.71261,-1.17174 1.3597,-0.12897 0.33892,-0.83481 0.77183,0.094 0.24494,0.23295 -0.15096,1.3017 0.031,1.40169 0.30993,0.74683 1.98455,0.51688 0.70085,-0.27793 1.22072,0.8838 0.21095,0.61586 1.19973,1.38169 0.97478,0.26194 1.23473,0.085 0.58586,0.27394 0.49789,0.91479 1.00478,0.42091 0.58886,0.53088 1.30571,0.47089 0.73983,0.8748 0.41591,-1.53965 1.04776,-0.38791 0.85281,-0.60087 0.022,-1.34369 0.4369,-0.86481 2.62941,-0.4249 1.79459,-1.40569 0.50489,-0.8678 0.16496,-0.98178 1.69362,0.99677 0.4599,0.52889 1.44167,-0.013 0.35392,-0.36592 0.32993,-1.21772 1.49366,-1.69162 1.19873,-1.14875 0.36792,-0.13696 1.86358,0.31592 0.40491,-0.49289 0.037,-0.75882 0.9098,-1.37769 1.3237,-0.036 0.64285,-0.26494 0.26794,0.43291 0.76183,0.038 0.13897,-0.75983 0.67885,-1.22573 1.12774,-0.26894 0.85281,0.75384 1.68262,0.35292 0.79383,-0.37192 1.23972,-1.92557 2.46844,0.83082 1.91657,-0.12898 0.69184,-1.66462 0.4429,-0.33692 1.25872,0.67984 1.69062,0.083 0.8928,-0.33592 0.57287,-0.70784 2.01055,-0.22695 0.16196,-0.93179 -0.39491,-0.53088 0.52188,-1.41068 -0.11897,-2.2265 -1.22173,-1.29471 -0.25494,-1.47767 -0.38891,-0.71484 -0.19296,-1.46867 0.54088,-1.55065 0.98978,-1.25272 0.17896,-0.55587 0.10697,-1.93057 0.14897,-0.24794 1.72761,0.93779 0.66085,-0.30193 1.05377,-0.87581 1.09175,-2.41745 -0.49989,-3.21428 -0.38591,-0.92579 0.58187,-2.04254 0.11797,-0.94279 -0.03,-1.98655 1.3157,-1.83559 0.77183,-0.74483 0.4499,-1.12175 0.11097,-1.01877 0.51889,-0.59087 0.18096,-0.70884 0.8808,-0.8888 1.14274,0.28194 0.57687,-0.22695 0.93979,-1.15374 1.58864,-0.68885 1.00078,-0.098 1.05676,0.67984 0.71284,0.056 2.11352,-0.73183 0.22595,-0.95079 0.58387,-0.97978 0.81682,-0.83781 0.83781,-1.24872 0.38691,-1.35669 -0.51488,-1.53866 -0.082,-1.14774 0.62786,-1.03777 1.06276,-0.47489 0.4459,0.078 1.84859,1.53866 0.63885,0.8838 0.37092,0.93979 1.24772,1.46867 1.11475,0.23494 2.01555,-1.20073 1.10675,-1.56364 0.041,-0.71384 1.43267,-1.86458 0.56188,-0.37492 0.63186,-1.72661 1.18373,0.18496 1.08476,-0.05 0.95778,-1.36669 1.44967,-1.23373 2.38447,-0.26794 0.95878,-0.004 0.013,0.68485 0.80482,1.30671 0.84681,0.45689 0.59286,0.70384 0.97078,2.2455 1.63364,1.3417 1.14974,0.49889 0.92079,1.24272 0.52388,0.23794 2.02955,1.44168 1.45267,0.32093 1.48167,-0.11598 1.21672,-0.99777 0.32893,-0.58087 2.14152,-1.27772 0.75183,-1.28171 0.76782,-0.21695 1.7736,0.35692 1.12275,0.03 0.76683,-0.31492 1.03377,1.68162 0.13897,2.06353 0.50588,0.77983 -0.12297,0.99077 -0.53388,1.01977 -0.007,0.94079 1.26572,0.71684 1.84658,0.52388 1.43568,0.72884 1.11775,0.17896 1.04676,-0.82182 2.05954,-0.34792 0.91779,0.015 0.48589,0.94879 0.37892,1.3307 0.38791,2.50543 0.53988,1.3237 0.78282,1.28372 2.2365,1.83858 1.7686,0.40391 1.60464,0.12097 0.96578,-0.079 0.4539,0.92679 0.29793,1.44468 0.61186,0.50988 1.30371,0.42891 -0.4529,1.3057 0.86381,2.43345 0.52688,0.74384 -0.27494,1.60864 1.26672,1.84258 0.53388,0.34692 1.63163,0.4419 2.47444,-0.084 1.26272,0.11098 0.31893,0.62286 0.90879,0.84781 0.71084,0.96478 -0.098,0.95678 0.19996,0.69685 -0.59687,1.04476 -0.31093,0.098 0.38992,1.16274 -0.092,0.96778 0.4439,1.11875 0.33792,2.02654 0.8698,0.99878 -0.51288,0.24894 -0.27294,1.62963 0.31893,0.95579 1.17474,0.52988 -0.26794,0.35192 0.19895,0.99178 -0.075,1.20873 0.31793,0.46289 3.87612,0.74184 0.4689,0.50288 1.27071,0.26094 0.73584,-0.18296 0.79882,0.19196 1.17173,-0.071 1.62564,-0.82882 1.00377,0.94679 0.57887,0.17996 0.4439,0.55687 1.23372,0.32893 0.56388,0.81382 0.50688,0.27294 0.25195,0.60286 -0.43591,0.69584 0.23295,1.51066 1.31171,1.72562 0.54787,0.50488 -0.35192,0.4689 0.17296,0.66385 -0.012,1.42268 1.17773,1.95856 -0.03,0.38191 -0.023,0.70884 0.32893,0.32293 0.088,0.98678 0.47589,1.24971 0.58887,0.39592 1.22872,-0.12898 1.29771,0.57687 0.75483,0.94479 0.60986,0.36792 1.30471,-0.082 1.17374,0.16296 1.41868,-0.61786 0.63685,0.92279 0.56388,0.26594 0.65385,0.94079 1.17074,0.57687 0.10397,1.27871 0.33493,0.62486 0.10097,1.26472 0.51889,1.81759 0.40791,0.53588 0.35492,1.55365 0.59686,0.79982 0.76883,1.49966 0.64685,0.86781 1.85659,0.40091 2.69739,1.21872 0.48089,0.53088 -0.10398,0.61186 0.50389,0.56988 1.29871,0.75383 0.8818,0.24794 0.51488,0.41691 0.60287,0.009 0.38991,0.79483 1.19473,1.61663 0.55288,0.98278 1.17573,2.90435 0.4609,0.53888 0.016,0.58486 2.07754,2.77138 0.59286,1.85658 0.65386,0.49889 0.89979,1.45067 0.36292,1.03577 -0.13497,1.04477 0.59287,0.97078 -0.066,1.14274 1.84959,1.86958 0.75283,1.56465 0.17196,1.03476 0.8918,1.3367 0.29493,0.26094 1.46667,0.44091 0.71384,1.02676 1.51266,0.75583 0.13397,0.9208 1.30071,0.91579 0.85381,0.018 0.69084,0.72083 0.61486,0.26195 -0.73183,35.512 77.13064,1.62564 -0.004,6.45854 18.88975,0.42391 19.95351,-0.057 -0.19896,13.27801 18.44285,0.32893 20.4324,0.13797 -0.39591,19.44362 3.62619,0.039 35.04811,0.32893 -0.16196,13.09805 38.78727,0.49789 -0.14597,12.9081 38.80327,0.49988 -0.091,6.39056 54.18879,0.48689 0.1899,-0.002 4.709,0.098 0.07,-4.92389 182.6889,0.10798 0.04,-13.01707 19.5855,0.04 -0.03,0.62686 -0.02,12.15926 5.8586,0.05 0.34,116.02389 -0.39,-0.045 0.04,38.06943 4.719,-0.042 0.02,113.30456 0.05,2.4694 0.1399,39.0512 -13.8469,0.03 0.33,147.9967 0.02,6.9385 h 6.3085 l 0.01,77.0426 -37.2716,0.1 -162.3934,-1.2497 -0.2,0.01 -70.40211,-1.0698 -33.98335,-0.2899 -31.09801,-0.21 -54.43574,-0.7198 -83.39524,-1.4697 -31.05001,-0.5598 0.16896,-1.9596 1.17774,-73.8934 -8.49009,-0.07 0.33492,-29.6733 -0.21895,-1.5296 -0.083,-5.8087 0.23395,-4.399 0.50289,-49.3989 -0.052,-0.3899 0.36692,-19.9156 -0.13397,-4.9788 -13.93087,-0.3799 -3.46122,-0.27 -2.89335,-0.07 0.25394,-1.8496 -0.60086,-1.2097 -0.62886,-1.7896 0.19496,-0.2699 2.89035,-1.1398 -1.24872,-0.8398 -0.28694,-1.2797 0.10298,-0.6898 -0.38492,-0.6099 -0.059,-0.8198 -0.62986,-0.3599 -0.32093,-1.2198 -0.19595,-0.05 -1.8006,-1.8196 -0.8718,-0.2 -0.56388,-0.7898 1.56965,-2.4994 1.62963,0.02 0.76083,-0.2899 0.9028,0.3899 0.21095,-0.1999 -0.4399,-0.9698 0.58087,-0.7798 -0.4479,-0.32 -1.20673,0.18 -1.3357,-0.4899 -0.19695,-1.1297 -0.63186,-0.4499 -1.66263,-0.4599 -0.82181,0.4099 -0.74983,-0.4599 -0.98978,0.2599 -1.08575,-0.5299 0.061,-1.0897 -0.4379,-0.9198 -1.3537,-0.22 -0.50388,0.27 -1.30571,-0.6399 -2.73438,-0.7598 0.009,-1.1298 0.26194,-0.5098 -0.33793,-0.39 -0.91279,-0.2299 -0.34992,-0.6698 -0.28494,-1.2498 -1.37869,-1.4496 -0.51588,-0.12 -0.78283,-0.8098 -0.75383,-1.3497 -0.58986,0.1299 -1.91957,-0.1799 -0.9198,-0.9898 -0.54487,0.2599 -0.79282,-0.1599 -1.27072,1.5796 -0.32792,1.0498 -0.057,1.1997 -0.95179,0.7598 -1.15274,-1.2097 -0.95978,0.26 -2.10753,-1.6897 -0.57387,-1.0097 -1.26671,-0.23 -0.25994,-0.4999 0.4379,-0.1299 -0.24595,-0.8298 0.22795,-0.8998 -0.31393,-0.37 -0.18896,-0.9697 0.40091,-0.9298 1.09876,-0.7099 0.001,-0.9498 2.09752,-2.3694 -0.20195,-0.7099 0.48089,-0.5998 1.14374,-0.28 0.76883,0.6199 0.83781,-0.2799 1.01677,-0.6199 0.60387,0.09 0.77882,-0.4199 0.052,-0.4099 -0.26694,-0.18 -0.97678,-2.4195 -0.55188,-0.4798 -1.81659,-0.31 -1.83558,-0.9198 -1.48667,-0.2199 -0.8928,-0.7199 -0.46489,-1.0297 0.4109,-0.23 -0.75183,-0.5599 -1.07575,0.3 -0.56088,1.2197 -0.66285,0.3399 -1.37769,-0.4299 -0.49689,-0.9098 -1.3397,-1.0197 -0.83381,-1.5297 -1.3217,-0.9798 -0.056,-1.5596 -0.91379,-1.3497 -0.26094,-0.8198 -1.45968,-0.15 -0.46489,-0.8298 -0.4389,-1.6596 0.18996,-0.8898 -0.55788,-0.5599 -0.19196,-0.7099 -1.13574,-0.6098 -0.68585,-2.1695 -0.58286,-1.1698 0.80381,-0.5498 -0.063,-0.5299 -1.29171,-0.5499 -0.04,-0.5799 -0.72284,0.8798 -2.2295,0.15 -0.32792,-0.5399 -1.03777,-0.6698 -1.27271,-0.4799 -0.40591,-0.8898 -1.63363,-0.7399 -1.88158,-1.0197 -1.04577,-0.32 -1.50966,-1.8395 -0.14096,-1.0398 -0.96979,-0.6399 -0.68384,-2.1995 -0.56188,-2.0695 -0.91979,-0.7198 0.4339,-0.9198 -0.16696,-2.1395 -0.62686,-0.7399 0.40991,-1.3697 -0.34392,-2.6694 0.005,-1.3097 -0.61886,-0.6298 -1.53566,-0.35 -0.70384,-2.7793 0.017,-0.7499 -0.72484,-1.1897 -0.37992,-1.9895 0.034,-0.6999 -0.34393,-0.8598 0.059,-1.3297 -0.4539,-0.5799 -3.11929,-2.1095 -0.25095,-2.0995 -0.71084,-1.8096 -0.63785,-1.21978 -0.9138,-0.82981 -0.39891,-1.27971 -0.82981,-1.01977 -0.73584,-1.21073 -0.63385,0.17296 -0.73684,0.8878 -0.80782,0.59986 -1.26771,0.26994 -1.02877,0.84981 -0.67585,0.17996 -1.61263,-0.69984 -2.18851,0.46989 -0.55288,-0.39991 -0.49289,-1.82958 0.32093,-0.71284 -0.67285,-0.65186 -0.80082,-1.55165 -0.70384,-0.50188 -0.57287,-0.78283 -0.71084,-0.53088 -0.071,-0.39791 -1.65263,-0.35992 -1.50666,-0.52288 -0.67785,-0.73584 -1.86958,-0.82881 0.33293,-0.75983 -0.60187,-0.25094 -0.73183,-1.09675 -0.10898,-1.26272 -0.47389,-0.22295 -1.11375,0.46889 -1.25072,-0.17896 -0.78782,-1.12974 -1.37569,0.092 -0.97379,-0.50389 -1.17673,0.36992 -0.39891,-2.15852 -0.82781,-0.78582 -0.72484,-0.59786 -0.8778,-1.44568 0.015,-0.37092 0.84081,0.015 0.28794,-0.36792 -0.24595,-0.75483 0.4469,-0.72083 -0.28893,-0.79882 -1.75561,-1.27772 -0.32992,-0.50688 -1.43768,0.63086 -0.51388,-0.015 -0.73684,-1.53266 -1.37469,-0.45489 -1.18773,0.4059 -1.40668,-0.077 -0.56288,-0.75783 -1.07376,0.095 -0.19995,-0.91179 -0.48389,-0.56888 0.16096,-0.92179 -1.20673,-1.28471 -0.24494,-1.56565 -0.81482,-0.47789 -0.4499,-1.11475 -0.67185,-0.074 -0.56187,-0.007 -0.15696,0.46889 -0.66285,0.37692 -0.60387,-0.22095 -1.13974,0.86081 -0.40191,-0.097 -0.27194,-0.86981 -0.55688,-0.78982 -0.8528,0.53588 -0.87481,0.15996 -0.93379,-0.48189 -1.00077,-1.55465 -1.11475,-0.075 -1.24772,0.4559 -1.13974,-0.11898 -0.4359,0.20396 -0.72784,0.98478 -1.23072,-0.26894 -0.53288,-0.37392 -1.30371,-0.39591 -0.047,-0.9088 -0.78482,-3.19228 0.19095,-0.96578 0.39791,-0.4359 -0.64785,-0.98478 0.37692,-1.03077 0.14796,-1.16474 1.02377,-0.95678 0.24295,-0.84281 0.61786,-0.28394 -1.06276,-1.47566 -0.98378,-0.17297 -1.72761,0.30893 0.14197,-1.21172 0.35392,-0.80382 -0.25295,-1.66263 -1.51066,0.48689 -0.50988,-0.63985 -1.53966,-0.63486 1.7936,-0.40891 1.14774,-0.70684 0.14897,-0.57687 1.62863,-0.97078 1.46267,-1.88258 -0.064,-0.64585 -0.69885,-0.39891 0.43191,-0.70484 -0.085,-0.43091 0.62486,-1.42268 -0.30494,-0.4449 -0.035,-1.52865 -1.80359,-0.98178 -0.95379,-1.53166 0.4349,-2.56142 -1.56664,-0.74683 -0.39391,-1.25372 -0.9008,-1.11675 -0.20296,-0.72783 0.4449,-0.26894 0.14897,-0.77983 -0.74583,-1.69362 0.13597,-0.68484 -0.4389,-0.21795 -1.82659,0.18895 -0.4619,-0.13097 -0.79582,-0.74283 -0.19695,-1.21473 -1.07776,-1.60264 0.12897,-0.54087 -0.75783,-0.52689 -1.3397,-2.39946 -1.3217,-1.3227 -0.87481,-0.22895 -0.91279,0.12697 -0.91079,-0.27793 -1.57165,-1.89258 -1.00178,-0.83781 -1.39368,0.21695 -1.42168,-0.57487 -0.51889,-1.05376 -0.033,-1.03877 -0.31493,-0.28393 -0.4329,-1.30971 0.41391,-0.77182 -0.4589,-0.50789 -0.50289,-1.10775 0.076,-0.91679 -0.58387,-0.55288 -0.76783,-3.08931 0.50789,-1.12374 -0.37992,-1.3467 0.30293,-1.53365 -0.16896,-1.10576 0.10798,-1.11474 -0.38991,-0.038 -1.09676,-1.22472 -1.46967,0.4619 -0.57187,0.80382 -0.8648,0.35791 -0.81982,-0.4229 -0.54888,-1.15774 -0.97478,-0.58887 -0.8868,-1.95456 -0.53688,-2.1955 0.38192,-2.03954 -0.47489,-0.28594 0.004,-0.53088 0.50289,-0.78782 -0.028,-1.10875 -0.53288,-0.9078 -0.29794,-1.53865 -0.049,-1.3427 -0.4779,-1.3217 -0.4429,-0.70285 0.73084,-0.81981 -0.4479,-0.65285 -1.7906,-0.69985 0.26694,-0.74483 -0.69084,-0.28593 -1.12575,-1.31271 -0.057,-1.41568 -1.69462,-1.10375 0.23295,-2.18951 -0.062,-1.80859 0.66285,-0.42291 0.33492,-0.82381 0.9098,-0.78083 -0.14697,-0.83081 -0.59887,-0.55987 -0.085,-0.62686 -1.55964,-1.24372 -0.028,-1.56365 0.54188,-1.04576 -0.19896,-1.18274 1.07076,-1.58564 -0.96778,-0.29094 -0.64485,-0.93479 -0.14097,-0.82581 -0.84181,-1.00177 0.058,-1.16974 -0.19795,-0.73084 -0.99578,-0.62886 -0.78282,-0.75782 -0.62786,-0.24895 -0.84381,-1.18273 0.91979,-0.58087 0.39791,0.028 1.64163,-1.01377 0.69085,-0.84481 0.18496,-0.77283 0.83181,-0.33192 -0.037,-0.79682 -0.83781,-1.3627 -0.30993,-0.79282 -0.94279,-1.01977 -0.01,-1.70461 1.30871,-0.29794 0.34192,-0.33092 0.20495,-1.03077 -0.4389,-1.65863 0.25494,-0.26294 1.69562,-0.61786 0.69285,-0.59287 0.033,-0.96078 0.55987,-0.9038 -0.64785,-1.56464 0.54588,-0.69485 0.12597,-1.25371 -0.073,-0.57188 -1.39468,-1.15374 -0.28694,-0.4389 -0.62586,-2.10152 -1.81859,-0.11598 -2.82736,-2.97333 -0.18796,-1.01877 -1.21372,-1.60564 -0.52489,-1.97555 0.079,-0.9198 -0.30694,-0.78582 0.24895,-1.7966 0.92479,-1.42368 0.86081,-0.92679 0.32192,-1.10275 -0.18395,-1.3397 0.19895,-1.59364 -0.49889,-0.95078 0.65586,-1.49467 0.091,-1.18273 -0.25695,-0.36192 -1.63663,-0.71984 -0.57687,-0.47389 -0.94179,-0.017 -0.12497,-0.75083 -0.8998,-1.75061 -0.19895,-0.061 -1.3217,0.067 -2.11253,1.29471 -2.27049,0.4729 -1.26271,0.63485 -1.02877,1.04577 -0.96678,0.31293 -0.82482,-0.18996 -1.3227,0.31793 -0.97478,-0.71384 -1.01577,0.24594 -1.92557,-0.09 0.67385,-28.60356 0.006,-0.16496 0.33792,-14.70869 -96.60226,-3.31126 4.50999,-156.28582 -0.71084,-0.065 2.62241,-86.50953"
     fill-rule="evenodd" />
  <path
     style="font-style:normal;font-weight:400;font-size:32.8125px;font-family:'MS Shell Dlg 2';fill:#e3e3e3;fill-opacity:0.97254902;stroke:#000000;stroke-width:5;stroke-linecap:square;stroke-linejoin:round;stroke-opacity:1"
     id="Sublette"
     vector-effect="none"
     d="m 229.98362,1057.8343 11.76035,0.4199 0.8848,-28.4436 1.08976,-36.16386 1.60364,-51.91631 0.30293,-0.034 1.37069,-37.7915 -0.018,-0.54388 3.07931,0.034 1.64963,-48.63906 0.95578,-25.19333 17.3371,0.58187 59.14069,2.16151 1.14874,-38.75527 64.59347,1.88857 18.59681,0.63686 10.30368,0.36692 0.42891,-11.27547 0.62086,-27.59279 1.93156,0.043 96.60226,3.31126 -0.33792,14.70869 -0.006,0.16496 -0.67385,28.60356 1.92557,0.09 1.01577,-0.24594 0.97478,0.71384 1.3227,-0.31793 0.82482,0.18996 0.96678,-0.31293 1.02877,-1.04577 1.26271,-0.63485 2.27049,-0.4729 2.11253,-1.29471 1.3217,-0.067 0.19895,0.061 0.8998,1.75061 0.12497,0.75083 0.94179,0.017 0.57687,0.47389 1.63663,0.71984 0.25695,0.36192 -0.091,1.18273 -0.65586,1.49467 0.49889,0.95078 -0.19895,1.59364 0.18395,1.3397 -0.32192,1.10275 -0.86081,0.92679 -0.92479,1.42368 -0.24895,1.7966 0.30694,0.78582 -0.079,0.9198 0.52489,1.97555 1.21372,1.60564 0.18796,1.01877 2.82736,2.97333 1.81859,0.11598 0.62586,2.10152 0.28694,0.4389 1.39468,1.15374 0.073,0.57188 -0.12597,1.25371 -0.54588,0.69485 0.64785,1.56464 -0.55987,0.9038 -0.033,0.96078 -0.69285,0.59287 -1.69562,0.61786 -0.25494,0.26294 0.4389,1.65863 -0.20495,1.03077 -0.34192,0.33092 -1.30871,0.29794 0.01,1.70461 0.94279,1.01977 0.30993,0.79282 0.83781,1.3627 0.037,0.79682 -0.83181,0.33192 -0.18496,0.77283 -0.69085,0.84481 -1.64163,1.01377 -0.39791,-0.028 -0.91979,0.58087 0.84381,1.18273 0.62786,0.24895 0.78282,0.75782 0.99578,0.62886 0.19795,0.73084 -0.058,1.16974 0.84181,1.00177 0.14097,0.82581 0.64485,0.93479 0.96778,0.29094 -1.07076,1.58564 0.19896,1.18274 -0.54188,1.04576 0.028,1.56365 1.55964,1.24372 0.085,0.62686 0.59887,0.55987 0.14697,0.83081 -0.9098,0.78083 -0.33492,0.82381 -0.66285,0.42291 0.062,1.80859 -0.23295,2.18951 1.69462,1.10375 0.057,1.41568 1.12575,1.31271 0.69084,0.28593 -0.26694,0.74483 1.7906,0.69985 0.4479,0.65285 -0.73084,0.81981 0.4429,0.70285 0.4779,1.3217 0.049,1.3427 0.29794,1.53865 0.53288,0.9078 0.028,1.10875 -0.50289,0.78782 -0.004,0.53088 0.47489,0.28594 -0.38192,2.03954 0.53688,2.1955 0.8868,1.95456 0.97478,0.58887 0.54888,1.15774 0.81982,0.4229 0.8648,-0.35791 0.57187,-0.80382 1.46967,-0.4619 1.09676,1.22472 0.38991,0.038 -0.10798,1.11474 0.16896,1.10576 -0.30293,1.53365 0.37992,1.3467 -0.50789,1.12374 0.76783,3.08931 0.58387,0.55288 -0.076,0.91679 0.50289,1.10775 0.4589,0.50789 -0.41391,0.77182 0.4329,1.30971 0.31493,0.28393 0.033,1.03877 0.51889,1.05376 1.42168,0.57487 1.39368,-0.21695 1.00178,0.83781 1.57165,1.89258 0.91079,0.27793 0.91279,-0.12697 0.87481,0.22895 1.3217,1.3227 1.3397,2.39946 0.75783,0.52689 -0.12897,0.54087 1.07776,1.60264 0.19695,1.21473 0.79582,0.74283 0.4619,0.13097 1.82659,-0.18895 0.4389,0.21795 -0.13597,0.68484 0.74583,1.69362 -0.14897,0.77983 -0.4449,0.26894 0.20296,0.72783 0.9008,1.11675 0.39391,1.25372 1.56664,0.74683 -0.4349,2.56142 0.95379,1.53166 1.80359,0.98178 0.035,1.52865 0.30494,0.4449 -0.62486,1.42268 0.085,0.43091 -0.43191,0.70484 0.69885,0.39891 0.064,0.64585 -1.46267,1.88258 -1.62863,0.97078 -0.14897,0.57687 -1.14774,0.70684 -1.7936,0.40891 1.53966,0.63486 0.50988,0.63985 1.51066,-0.48689 0.25295,1.66263 -0.35392,0.80382 -0.14197,1.21172 1.72761,-0.30893 0.98378,0.17297 1.06276,1.47566 -0.61786,0.28394 -0.24295,0.84281 -1.02377,0.95678 -0.14796,1.16474 -0.37692,1.03077 0.64785,0.98478 -0.39791,0.4359 -0.19095,0.96578 0.78482,3.19228 0.047,0.9088 1.30371,0.39591 0.53288,0.37392 1.23072,0.26894 0.72784,-0.98478 0.4359,-0.20396 1.13974,0.11898 1.24772,-0.4559 1.11475,0.075 1.00077,1.55465 0.93379,0.48189 0.87481,-0.15996 0.8528,-0.53588 0.55688,0.78982 0.27194,0.86981 0.40191,0.097 1.13974,-0.86081 0.60387,0.22095 0.66285,-0.37692 0.15696,-0.46889 0.56187,0.007 0.67185,0.074 0.4499,1.11475 0.81482,0.47789 0.24494,1.56565 1.20673,1.28471 -0.16096,0.92179 0.48389,0.56888 0.19995,0.91179 1.07376,-0.095 0.56288,0.75783 1.40668,0.077 1.18773,-0.4059 1.37469,0.45489 0.73684,1.53266 0.51388,0.015 1.43768,-0.63086 0.32992,0.50688 1.75561,1.27772 0.28893,0.79882 -0.4469,0.72083 0.24595,0.75483 -0.28794,0.36792 -0.84081,-0.015 -0.015,0.37092 0.8778,1.44568 0.72484,0.59786 0.82781,0.78582 0.39891,2.15852 1.17673,-0.36992 0.97379,0.50389 1.37569,-0.092 0.78782,1.12974 1.25072,0.17896 1.11375,-0.46889 0.47389,0.22295 0.10898,1.26272 0.73183,1.09675 0.60187,0.25094 -0.33293,0.75983 1.86958,0.82881 0.67785,0.73584 1.50666,0.52288 1.65263,0.35992 0.071,0.39791 0.71084,0.53088 0.57287,0.78283 0.70384,0.50188 0.80082,1.55165 0.67285,0.65186 -0.32093,0.71284 0.49289,1.82958 0.55288,0.39991 2.18851,-0.46989 1.61263,0.69984 0.67585,-0.17996 1.02877,-0.84981 1.26771,-0.26994 0.80782,-0.59986 0.73684,-0.8878 0.63385,-0.17296 0.73584,1.21073 0.82981,1.01977 0.39891,1.27971 0.9138,0.82981 0.63785,1.21979 0.71084,1.8096 0.25095,2.0995 3.11929,2.1095 0.4539,0.5799 -0.059,1.3297 0.34393,0.8598 -0.034,0.6999 0.37992,1.9895 0.72484,1.1897 -0.017,0.7499 0.70384,2.7793 1.53566,0.35 0.61886,0.6298 -0.005,1.3097 0.34392,2.6694 -0.40991,1.3697 0.62686,0.7399 0.16696,2.1395 -0.4339,0.9198 0.91979,0.7198 0.56188,2.0695 0.68384,2.1995 0.96979,0.6399 0.14096,1.0398 1.50966,1.8395 1.04577,0.32 1.88158,1.0197 1.63363,0.7399 0.40591,0.8898 1.27271,0.4799 1.03777,0.6698 0.32792,0.5399 2.2295,-0.15 0.72284,-0.8798 0.04,0.5799 1.29171,0.5499 0.063,0.5299 -0.80381,0.5498 0.58286,1.1697 0.68585,2.1695 1.13574,0.6098 0.19196,0.7099 0.55788,0.5599 -0.18996,0.8898 0.4389,1.6596 0.46489,0.8298 1.45968,0.15 0.26094,0.8198 0.91379,1.3497 0.056,1.5596 1.3217,0.9798 0.83381,1.5297 1.3397,1.0198 0.49689,0.9097 1.37769,0.43 0.66285,-0.3399 0.56088,-1.2198 1.07575,-0.2999 0.75183,0.5598 -0.4109,0.23 0.46489,1.0298 0.8928,0.7199 1.48667,0.2199 1.83558,0.9198 1.81659,0.3099 0.55188,0.4799 0.97678,2.4195 0.26694,0.18 -0.052,0.4099 -0.77882,0.4199 -0.60387,-0.09 -1.01677,0.6199 -0.83781,0.2799 -0.76883,-0.6199 -1.14374,0.28 -0.48089,0.5998 0.20195,0.7099 -2.09752,2.3694 -10e-4,0.9498 -1.09876,0.7099 -0.40091,0.9298 0.18896,0.9697 0.31393,0.37 -0.22795,0.8998 0.24595,0.8298 -0.4379,0.1299 0.25994,0.4999 1.26671,0.23 0.57387,1.0097 2.10753,1.6897 0.95978,-0.26 1.15274,1.2097 0.95179,-0.7598 0.057,-1.1997 0.32792,-1.0498 1.27072,-1.5796 0.79282,0.1599 0.54487,-0.2599 0.9198,0.9898 1.91957,0.1799 0.58986,-0.1299 0.75383,1.3497 0.78283,0.8098 0.51588,0.12 1.37869,1.4496 0.28494,1.2498 0.34992,0.6698 0.91279,0.2299 0.33793,0.39 -0.26194,0.5098 -0.009,1.1298 2.73438,0.7598 1.30571,0.6399 0.50388,-0.27 1.3537,0.22 0.4379,0.9198 -0.061,1.0897 1.08575,0.5299 0.98978,-0.2599 0.74983,0.4599 0.82181,-0.4099 1.66263,0.4599 0.63186,0.4499 0.19695,1.1297 1.3357,0.4899 1.20673,-0.18 0.4479,0.32 -0.58087,0.7798 0.4399,0.9698 -0.21095,0.1999 -0.9028,-0.3899 -0.76083,0.2899 -1.62963,-0.02 -1.56965,2.4994 0.56388,0.7898 0.8718,0.2 1.8006,1.8196 0.19595,0.05 0.32093,1.2198 0.62986,0.3599 0.059,0.8198 0.38492,0.6099 -0.10298,0.6898 0.28694,1.2797 1.24872,0.8398 -2.89035,1.1398 -0.19496,0.2699 0.62886,1.7896 0.60086,1.2097 -0.25394,1.8496 2.89335,0.07 3.46122,0.27 13.93087,0.3799 0.13397,4.9788 -0.36692,19.9156 0.052,0.3899 -0.50289,49.3989 -0.23395,4.399 0.083,5.8087 0.21895,1.5296 -0.33492,29.6733 8.49009,0.07 -1.17774,73.8934 -0.16896,1.9596 -25.7712,-0.35 -1.3467,-0.09 -59.64757,-1.1698 -0.30293,-0.03 -22.05704,-0.4899 -0.85081,-0.07 -32.54967,-0.5198 -7.5503,-0.12 -1.3317,-0.13 -14.01785,-0.5399 -66.2011,-2.3894 -1.3177,-0.05 -1.20673,0.03 -81.47967,-3.9591 -1.84858,-0.2 -17.10415,-0.7898 -45.04986,-1.3197 h -0.014 l -0.32992,-0.05 -1.25172,-0.04 -4.11708,-0.04 0.21196,-2.6194 -24.80642,-0.4899 -2.37347,-0.1299 -1.03976,0.08 -44.13807,-1.5596 0.088,-1.6996 -38.72928,-0.2 0.10397,-4.0291 1.92957,-72.2837 -15.46452,-0.5099 0.19296,-4.379 0.44889,-10.1377 0.36392,-8.4081 3.04132,-93.7989 -10.99153,-0.4299 1.08876,-30.8031"
     fill-rule="evenodd" />
  <path
     style="font-style:normal;font-weight:400;font-size:32.8125px;font-family:'MS Shell Dlg 2';fill:#e3e3e3;fill-opacity:0.97254902;stroke:#000000;stroke-width:5;stroke-linecap:square;stroke-linejoin:round;stroke-opacity:1"
     id="Sheridan"
     vector-effect="none"
     d="m 1126.9008,81.574107 9.2179,0.08638 11.3074,0.101877 30.6332,0.253543 4.249,0.0101 40.8508,0.06469 0.3199,-0.03029 2.4795,-0.0126 10.0977,-0.05339 24.2445,-0.142568 44.72,0.0164 17.0161,0.118873 52.0783,0.301633 2.7194,0.313529 6.3486,0.269439 6.5985,0.930891 3.1693,-0.194556 7.6883,0.226749 14.5967,-0.0065 4.8589,-0.0038 0.6598,-5e-4 27.3439,-0.03719 2.7694,-0.0052 1.3097,0.01969 101.0972,-0.328826 1.3297,-0.0067 96.3783,-0.647155 0.04,-3e-4 75.9429,-1.050363 0.04,4.958184 -0.08,1.369092 0.12,1.238121 1.3397,48.38401 1.7596,-0.012 1.1298,4.91289 0.8498,67.5188 1.4696,6.20461 0.01,2.62041 0.4299,22.93084 0.7998,32.30873 -15.8664,0.65185 -38.4913,0.25194 0.11,0.75983 -79.952,1.14874 0.02,2.2395 -36.6217,0.35492 -2.1495,0.013 -0.24,0.003 -23.9746,0.094 -1.6996,-0.11897 -10.5276,0.36192 -17.5161,-0.14297 -30.7331,0.077 -15.6664,0.10597 -22.7049,-0.12297 -19.9156,-0.17196 -1.3197,0.11797 -10.4376,-0.11397 v 0.38291 l -6.3086,-0.002 -23.2847,0.11597 -54.6977,-0.18395 -23.4348,-0.29894 -0.4998,-1.11774 -0.04,-1.89158 -0.5099,-0.64485 -0.33,-2.18951 0.29,-0.62686 -0.22,-0.83781 -0.9398,-1.71762 0.5599,-0.88979 -0.8398,-0.73884 -1.0398,-0.4209 -0.6098,-1.44968 -0.7998,-0.8758 0.5298,-2.50244 -3.0093,-0.26994 -1.3797,-1.19273 -1.9795,-0.52688 -1.7896,0.096 -1.3397,0.32792 -0.4699,-0.45889 -1.5097,-0.50889 -1.0997,-1.11575 0.09,-2.23549 -0.4499,-1.13975 -0.34,-0.18995 -3.3592,-0.17496 0.9198,1.44367 -0.06,0.40291 -1.2197,0.13897 -0.3,0.30193 -1.7896,0.52888 -1.8595,-0.57587 -1.2498,-0.36692 -1.4596,-0.025 -0.23,-0.69584 -1.8096,-1.25272 -1.4596,-0.28494 -0.42,0.19896 -0.7398,-0.71484 -1.4897,-1.04577 -0.6798,-0.74683 -0.3599,-0.93479 -0.05,-0.99477 -0.8498,-1.14575 -1.0798,-0.36591 -0.7298,-1.15674 -0.08,-0.57487 -0.6498,-1.53966 0.1199,-1.12874 -0.7298,-0.70684 -0.7398,-2.26949 -0.7299,0.21295 -0.9698,-0.24495 -1.0197,0.9198 -0.4099,1.06076 -0.6899,0.77682 -1.3097,1.00378 -1.1597,0.14796 -1.7596,-0.24494 -1.2897,0.40491 -1.3197,-0.79782 0.04,-0.83881 -0.5898,-1.21373 0.1699,-1.62563 -0.07,-0.41291 -1.6197,-1.18074 -0.1299,-0.8598 0.3999,-1.19473 0.8498,-0.27794 0.3999,0.19895 0.2699,-0.48289 1.9196,-1.71361 1.0697,-1.99955 -0.9397,-0.38092 -1.1798,-0.95578 -0.6098,-0.85881 -1.1698,-0.37591 -1.3297,0.64085 -0.9298,0.023 -1.2797,-0.4659 -0.7498,-0.028 -1.1398,-0.4419 0.33,-1.64063 -0.5399,-1.27272 0.13,-2.36246 -2.3795,0.086 -1.1397,-0.99778 -2.3795,-1.10275 -1.0598,0.28393 -0.8698,-0.15896 -0.9798,-1.23272 -0.8198,-1.42468 -0.5598,-0.37492 -2.3695,0.64386 -0.6999,-0.27894 -0.4299,-1.44467 -1.1797,-1.28671 -0.7698,-0.15997 -1.1098,0.38292 -0.9797,-0.19996 -1.4097,-0.70484 -0.9898,-0.63586 -0.6199,-1.05376 -0.5598,-0.4519 -1.2198,1.11075 0.01,1.42668 -0.9398,1.15774 -0.9697,0.28494 -1.2698,-0.37592 -1.6396,0.38191 -1.0098,0.4459 -0.8198,-0.085 -0.9098,-0.77282 -2.3594,0.4289 -0.28,0.8928 -1.1297,0.46889 -0.27,0.9078 -0.1,1.3437 -0.29,0.30093 -0.8098,0.26494 -1.2697,0.75983 -1.1098,0.10098 -0.5098,0.69584 -0.32,-0.044 -0.4599,-0.30193 -0.6698,-1.05477 -0.4699,-1.13374 -1.1198,-1.11375 -0.8898,-0.18496 -1.0797,-2.29848 0.9798,-1.51866 0.09,-2.84836 -0.5498,-1.44267 -0.8698,0.26594 -1.4097,-0.57487 -0.5799,-0.39991 -0.9598,-0.30194 -0.3399,0.11798 -0.6498,1.39468 -1.3097,-0.44989 -1.1298,-0.86581 -1.1497,-0.57987 -1.0998,-0.079 -1.5696,-0.58987 -1.9396,-1.67262 -1.0698,-0.51189 -0.3499,-0.40791 -1.8996,0.4839 -0.7898,0.8678 -0.4299,0.058 -1.1997,-0.49889 -0.6099,-0.48189 -0.6898,-0.9098 -0.7398,-1.55765 -1.0498,-1.13974 0.1999,-0.36292 0.9698,-0.38991 1.0098,-1.71861 -0.4099,-2.00855 0.3099,-1.83159 0.4099,-1.75361 -0.1,-0.35492 -1.3197,-1.16073 -0.2999,-0.53588 0.3899,-1.18674 0.03,-0.8638 0.7099,-0.8988 -0.04,-0.76083 -2.0796,-1.00477 -0.5998,-0.67985 0.4899,-0.084 -0.33,-1.53965 0.4399,-1.75961 -0.3599,-0.63286 -0.3499,-1.59364 -2.4095,-0.83181 -0.9098,-0.4609 -2.0495,-0.098 -1.4097,0.20895 -1.0797,0.37691 -0.4599,-0.14796 -2.9194,-2.00755 -1.0397,-1.35969 -1.2798,-0.15997 -0.9197,-1.35669 -2.3995,-1.00078 -1.7396,-1.61963 -1.1098,-0.29094 -1.9895,-0.74883 -0.7698,-0.087 -1.9396,0.67985 -0.4499,-0.12498 -0.08,-2.00354 0.3599,-2.14052 0.29,-0.59787 0.8498,-0.80382 2.1195,-1.7716 1.0498,-1.03776 0.2199,-0.56688 0.3999,-3.14929 -0.4199,-1.01077 -1.2597,-0.63086 -1.4897,0.29294 -0.9797,-0.4819 0.4099,-0.65285 1.1897,-0.18696 -0.14,-0.59386 -0.6498,-0.36492 -1.8896,0.20695 0.5999,-1.57164 0.8598,-0.94579 0.1,-1.05576 -0.4698,-1.54966 -0.6699,-0.32292 -0.4599,-1.11175 0.4299,-1.42368 -0.06,-0.92679 -1.7596,-0.69985 -1.0397,-1.48666 -0.34,-1.11375 -0.2799,-2.35747 -0.5799,-1.37269 -0.4699,0.023 -1.2297,-0.76282 -1.6596,-2.33648 -0.7598,0.003 -1.3897,-0.47389 -0.32,-1.08176 -0.7098,-1.22272 0.05,-0.74084 0.7698,-1.11575 0.5499,-1.7456 -0.02,-2.11853 0.15,-0.31293 -0.26,-1.70961 0.19,-1.64463 0.9498,0.067 0.5098,-0.24794 0.4,-0.9148 1.0497,-0.72183 0.9698,0.10097 -0.6798,-1.91057 0.3799,-1.3187 -0.9198,-0.57287 -0.25,-0.8868 -0.07,-2.46245 0.19,-0.60186 -1.2597,-0.40191 -1.0898,-0.95079 -1.2897,-1.7746 -0.6298,-0.56087 -0.9598,-0.38791 -0.8798,-1.65063 -1.7196,-1.3447 -0.8198,-0.30793 -0.5499,-0.58187 -0.06,-1.53665 0.12,-1.18674 -0.2,-1.3217 0.4099,-0.94779 -0.02,-1.2917 0.6099,-0.99078 0.13,-0.73284 -0.2,-0.92779 0.7398,-1.87558 -0.1799,-0.8758 0.3899,-1.443675 -0.06,-0.775825 -0.5299,-1.342698 -0.1999,-1.040866 -0.5299,-0.79592 0.02,-1.492465 -0.8898,-2.70979 0.6198,-2.033942 -0.6898,-1.062061 -0.5799,-0.26444 -1.4996,-1.55775 -0.9898,0.334225 -1.6696,-2.099328 -0.9098,-0.438301 -1.8096,0.4447 -0.6299,-0.513285 0.09,-0.703841 -0.6299,-0.684946 -0.1399,-0.597466"
     fill-rule="evenodd" />
  <path
     style="font-style:normal;font-weight:400;font-size:32.8125px;font-family:'MS Shell Dlg 2';fill:#e3e3e3;fill-opacity:0.97254902;stroke:#000000;stroke-width:2.36250427;stroke-linecap:square;stroke-linejoin:round;stroke-opacity:1;stroke-miterlimit:4;stroke-dasharray:none"
     id="Teton"
     vector-effect="none"
     d="m 121.42905,209.27127 97.3031,3.45022 1.60764,0.21895 24.8684,0.95979 -1.3327,37.37759 93.59794,3.05931 -0.52988,1.24072 0.31592,1.19773 0.98178,1.35369 -0.10597,1.67263 -0.24695,0.57487 -0.4089,0.47989 -1.19374,0.032 -0.77082,0.58687 -0.60587,0.17396 -0.70184,0.55788 0.056,0.61686 2.27049,0.75383 2.1915,1.3087 2.15452,1.60664 1.03277,1.19073 2.1985,0.57987 2.65341,0.95579 1.7706,0.80782 0.73083,0.046 1.14275,0.47689 0.19795,-0.49789 0.39991,0.011 -0.066,-1.39569 0.18895,-0.67485 0.60087,-0.26594 2.14352,-0.14196 0.37591,-0.13797 1.11775,0.18296 0.91779,-0.63786 0.67885,0.16896 1.36969,0.68985 2.50544,1.73061 1.74461,1.59464 1.21972,1.48466 0.56687,1.13875 0.046,0.80082 -0.39691,0.71484 -1.57764,0.28993 0.045,1.06076 -0.4639,0.4509 -0.4389,0.9028 -0.13797,0.8768 0.33793,0.58587 0.55087,0.38091 1.02577,-0.022 0.4479,-0.31293 0.72784,0.39691 0.79482,0.69084 0.73583,0.8888 1.39869,2.03854 0.58487,1.10775 0.10397,0.83482 -0.93379,2.17051 0.09,1.38669 -0.37191,0.92579 0.4279,1.71661 0.07,1.47167 -0.14596,0.35192 -1.19573,1.49167 -0.80182,1.96155 0.067,1.05677 0.26794,1.27971 0.28794,2.62241 -0.42491,1.72461 -0.65085,0.97578 -0.67385,0.15796 -0.53988,-0.19595 -0.74183,0.99677 0.34792,2.2285 -0.25694,2.29849 0.36192,3.25626 -0.019,0.70784 -1.3457,3.60319 0.081,2.12452 -0.4189,1.12975 -0.8998,0.20995 -0.24994,1.53166 0.13797,0.77082 0.63485,0.99678 0.83582,0.56187 0.54387,0.66885 0.52788,1.05177 0.36792,1.7516 0.68385,0.76183 0.99677,0.60686 1.01078,1.13075 0.83881,0.37792 1.06076,0.031 1.50366,0.82881 0.65385,0.16596 1.67763,0.81282 0.48589,0.82082 1.11075,1.34569 -0.051,1.92557 0.36592,1.39569 0.012,1.40168 -0.16696,2.02555 1.05276,0.15096 2.32048,0.98578 0.4699,0.48389 0.18595,0.76783 1.71662,1.20873 0.46489,0.8768 0.4749,0.48189 0.54787,1.22572 0.60187,0.84881 0.029,0.52488 -0.34892,1.04877 0.53788,1.82559 0.19995,2.40946 -0.47589,1.20972 0.49089,2.31548 -0.16696,0.80082 0.51088,0.82482 0.37892,0.98977 -0.21595,1.7876 -0.50589,0.79082 0.23295,1.8096 0.4229,1.15974 1.05776,1.25871 0.65786,0.4349 3.90512,1.3517 1.04776,0.63086 -0.036,1.11275 0.31493,0.55487 -0.43091,0.50389 0.51889,0.15296 0.13297,1.14875 -0.27394,-0.93979 -0.16196,1.30071 -0.27394,-0.37992 -0.79082,1.13375 -0.37992,-0.4659 0.92679,1.39669 0.034,0.50288 -0.53189,-0.4509 -1.22972,0.086 -0.34192,0.25995 0.66685,0.62086 0.51288,1.42668 0.79782,0.93978 -0.18096,0.99578 0.60087,0.12297 0.8658,-0.51888 0.33793,0.055 2.51243,2.76038 0.29494,0.064 0.4269,-0.14697 0.66285,-0.91879 0.12197,-1.54865 -0.33192,-0.56087 0.25094,-0.54888 1.28971,-0.25594 0.23695,0.59386 -0.56587,0.4419 -0.36492,0.9148 0.16796,1.40068 0.66085,0.31393 0.41291,-0.12997 0.4229,-0.92279 0.65786,-0.32593 0.77482,-0.024 0.59287,0.93479 -0.18196,0.77082 -0.76383,0.41791 -0.09,0.69084 0.52388,0.21995 0.60387,0.63686 0.58986,0.13897 0.34693,-0.08 0.79282,-0.8928 0.17196,-0.75483 1.26671,0.49189 0.19096,0.84781 2.18251,1.87558 0.47889,-0.08 0.63086,0.40591 0.53988,0.93279 -0.30993,0.17096 0.79382,1.17474 0.8798,1.93256 -0.03,1.01178 -0.23295,1.17873 1.48867,1.22573 -0.50989,1.25871 -2.69839,0.58387 0.004,0.54388 0.35992,0.97678 0.4169,0.15996 0.023,0.57187 0.80082,0.70884 0.46189,0.048 1.21173,0.71084 -0.50089,0.51789 -0.19995,1.06776 -0.42091,0.62486 -0.48589,0.067 0.38092,1.82159 0.32092,0.47189 0.82982,0.51389 0.4119,0.8688 0.57188,0.4599 0.72883,-0.17396 0.061,-0.53288 0.76283,0.30893 -0.39492,1.13874 0.12998,0.42491 -0.67485,1.13574 0.39191,1.20373 -0.071,0.42291 -1.25772,0.61286 -0.24095,1.25572 0.4469,0.22095 0.51789,0.78282 0.18795,1.06476 0.8908,0.74883 -0.036,0.52788 -0.62986,1.21073 0.22195,0.37991 1.09176,0.75483 0.39891,1.02577 0.021,0.66186 0.52188,0.52888 0.16197,0.8718 0.30893,0.38591 0.19396,0.94379 -0.088,0.98178 0.49888,-0.14797 0.4649,-0.54487 0.65285,-1.18474 1.25772,-0.28093 0.23095,0.20695 0.19595,1.42968 1.16074,1.26771 -0.21595,0.4489 -0.49889,-0.013 -0.73483,-0.45889 -0.68185,-0.041 -0.20795,0.61786 -0.51389,0.37391 -0.8748,0.049 -0.66385,0.92779 -0.12397,0.80482 0.25494,0.84081 0.53588,0.49289 0.56587,0.98778 0.62986,0.10898 0.50589,-0.85881 0.57387,-0.097 0.81381,0.60586 0.36692,1.38069 0.33593,0.56987 0.001,0.77183 -0.98478,0.76983 -1.17074,-0.49289 -1.88258,-1.09775 -0.63785,0.51088 0.049,0.9098 1.20573,0.082 1.20572,0.56887 0.35692,0.41891 -0.18795,0.62386 -0.42491,0.24794 -1.05576,0.12497 -0.12897,0.84081 0.85781,0.79582 -0.076,1.10975 0.77683,-0.25094 -0.13997,-0.94679 0.21595,-0.4149 1.38169,-0.13297 0.64585,-0.52889 0.9198,0.41791 -0.08,0.82382 -0.76983,0.8508 -0.10898,1.01977 -0.26894,0.43691 -0.63985,0.12697 -1.17774,-0.69685 -0.52388,0.87281 -1.00477,0.11497 -0.25795,0.29794 0.042,0.76982 -0.87681,-0.10497 -0.043,0.4149 0.47789,0.20396 0.40891,1.22772 1.06176,0.74583 0.16997,0.53088 -0.69585,0.75183 -0.94579,0.05 -0.30693,0.84181 0.4769,0.20996 -0.14297,0.99277 -0.76283,0.51789 -0.47189,-0.069 -1.04177,0.62586 0.045,0.64685 0.38891,0.31993 0.17097,1.22973 0.4419,0.14096 0.16996,0.62086 -0.72184,0.005 -0.69184,0.82782 0.96978,0.23694 0.041,1.11875 -0.64886,1.36969 0.10698,0.85081 0.19496,-0.47389 0.70784,0.029 0.091,0.53188 -0.36992,0.4449 0.20895,0.4649 0.79682,0.096 0.15097,0.50588 -0.33892,0.67085 0.36791,0.62486 0.47989,-0.20895 0.87981,0.30093 -0.004,0.59987 -1.04777,0.094 -0.089,0.9208 21.3412,0.59586 -0.17896,7.07941 -1.35769,48.65605 -2.62241,86.50953 0.71084,0.065 -4.50999,156.28582 -1.93156,-0.043 -0.62086,27.59279 -0.42891,11.27547 -10.30368,-0.36692 -18.59681,-0.63686 -64.59347,-1.88857 -1.14874,38.75527 -59.14069,-2.16151 -17.3371,-0.58187 -0.95578,25.19333 -48.15017,-1.64263 -28.69254,-1.07876 1.09276,-29.99325 0.20695,-5.18083 -37.14764,-1.20073 0.036,-1.09775 -12.96308,-0.4599 -25.10035,-0.91279 3.0813,-82.78237 0.70285,-18.88575 0.66085,-17.766 1.26471,-33.96836 0.30593,-9.05996 0.025,-0.73683 -0.009,-1.73262 0.038,-0.4049 0.016,-0.9108 0.50388,-15.29056 0.067,-1.7876 0.008,-0.21795 v -0.002 l 0.038,-0.18096 0.91879,-25.19333 0.40791,-11.15948 0.12197,-3.36925 1.70062,-41.36069 1.04776,-29.7773 0.10198,-3.79414 0.19996,-7.36235 -0.20196,-9.03096 0.81882,-18.02695 0.008,-0.19495 0.074,-0.92179 0.97778,-23.21578 -0.037,-4.52098 0.12597,-3.33025 3.73716,-98.96473 0.55287,-9.52186 1.05577,-27.23987 0.047,-1.00577 0.70784,-16.11038 0.67884,-67.58778 0.69385,-18.50284"
     fill-rule="evenodd" />
  <path
     style="font-style:normal;font-weight:400;font-size:32.8125px;font-family:'MS Shell Dlg 2';fill:#e3e3e3;fill-opacity:0.97254902;stroke:#000000;stroke-width:5;stroke-linecap:square;stroke-linejoin:round;stroke-opacity:1"
     id="Albany"
     vector-effect="none"
     d="m 1652.2025,1691.2318 38.5214,-0.4599 0.03,0.5598 46.8794,-1.2397 -1.9195,-60.4864 -0.13,-6.6485 -2.0196,-100.6073 -0.06,-1.3497 -0.2699,-17.3161 -0.07,-0.7499 -0.4899,-37.0716 -0.1099,-1.8896 -0.18,-9.1979 0.03,-0.4699 0.03,-4.9989 -0.15,-2.1595 -0.2699,-19.3457 -0.11,-2.2095 0.1,-0.4899 -0.15,-2.8093 -1.0997,-40.6209 -1.8496,-154.6652 38.6813,-0.4499 3.1293,0.25 23.6147,-0.32 0.5498,0.1 35.2721,-0.5699 22.7349,-0.1799 34.6622,-0.7098 0.9698,0.09 11.4574,-0.1199 0.1799,10.8575 -6.3985,0.15 0.2299,12.8971 -0.7798,-0.02 -12.1273,0.2299 0.9198,32.5627 4.779,-0.2499 0.07,3.2392 11.7974,-0.1299 9.2779,1.0297 3.0293,-0.7698 0.17,3.2393 2.9793,-0.4299 46.9794,-1.2398 -0.03,-1.6496 -1.2997,-11.2175 1.0398,0.01 0.8998,-0.09 4.7089,-0.18 -0.4599,-3.6692 -0.4299,-2.6794 -0.7398,-18.4658 v -0.6199 l 3.1493,-0.1 -0.22,-12.5971 3.2893,-0.22 -0.16,-6.3085 3.1793,-0.09 -0.1799,-5.3588 16.1063,-0.5099 0.5899,22.6849 0.8198,8.888 1.6796,61.956 1.4797,59.2667 2.4595,-0.03 1.0097,36.4218 0.34,4.1791 0.4199,5.2088 1.2397,49.5588 0.08,0.9698 0.5198,25.0744 0.7499,33.2425 -2.3895,0.07 1.1598,38.0514 3.0093,114.9042 -0.01,1.5296 -0.8698,0.06 0.5398,28.7036 0.7199,22.5349 1.0398,39.981 0.05,2.2795 0.03,0.1099 1.0398,30.7231 0.8098,31.5629 0.6399,-0.06 0.4999,21.1653 -0.1,0.01 -45.7697,1.2297 -105.3663,2.5794 -1.8996,0.05 -13.5469,0.2499 -98.1379,1.6097 -43.6902,0.3699 -9.128,0.07 -34.9821,-0.16 -2.3794,-149.6463 -0.21,-17.896 -0.08,-3.4192 -0.11,-5.5687"
     fill-rule="evenodd" />
  <path
     style="font-style:normal;font-weight:400;font-size:32.8125px;font-family:'MS Shell Dlg 2';fill:#e3e3e3;fill-opacity:0.97254902;stroke:#000000;stroke-width:5;stroke-linecap:square;stroke-linejoin:round;stroke-opacity:1"
     id="Campbell"
     vector-effect="none"
     d="m 1726.9257,88.09524 0.08,-1.369092 -0.04,-4.958184 30.7231,-0.481892 4.389,-2.915844 0.27,-0.432702 1.2997,-0.0068 19.4756,-0.108775 23.0848,-0.415607 128.5011,-2.649503 v -10e-5 l 66.9249,-1.606339 26.774,-0.686145 1.4896,57.921763 0.6099,-0.015 0.3299,38.03844 -0.8898,-0.15197 -1.8595,-0.049 1.1497,45.37379 0.7098,27.0959 0.12,1.95056 0.8298,41.60764 1.0998,0.016 0.7998,43.1023 0.08,0.77283 -0.1,1.15374 0.4099,23.30576 0.11,1.33869 1.0098,37.15264 0.1299,1.54865 0.1,2.39147 -0.2,0.62586 0.16,0.50988 0.5699,27.29186 0.2999,3.36224 0.9098,14.72069 0.9298,-0.028 1.9796,93.93386 1.4196,62.29198 0.8498,-0.064 0.05,6.26959 0.35,32.67765 2.8193,106.1761 0.27,1.07976 0.02,0.68184 -14.8767,0.64086 -80.4019,2.2035 -24.1246,0.81482 -15.9464,0.28994 -1.5196,0.15396 -60.0065,1.55965 -77.5026,1.7736 -25.1743,0.50589 -0.4299,-0.10298 -5.0389,0.11397 -1.0898,-55.70246 -0.3199,-2.40446 -0.9798,-87.87922 2.7194,-0.083 -1.7196,-93.42998 -1.2297,-47.74825 -0.23,-14.55872 -1.6496,0.028 -1.0198,-60.29643 -0.8198,-96.94418 1.9196,-0.076 -0.6899,-19.20467 -0.7998,-32.30873 -0.4299,-22.93084 -0.01,-2.62041 -1.4696,-6.20461 -0.8498,-67.5188 -1.1298,-4.91289 -1.7596,0.012 -1.3397,-48.38401 -0.12,-1.238121"
     fill-rule="evenodd" />
  <path
     style="font-style:normal;font-weight:400;font-size:32.8125px;font-family:'MS Shell Dlg 2';fill:#e3e3e3;fill-opacity:0.97254902;stroke:#000000;stroke-width:5;stroke-linecap:square;stroke-linejoin:round;stroke-opacity:1"
     id="Goshen"
     vector-effect="none"
     d="m 2195.1704,1137.5864 9.9377,-0.22 4.509,0.07 26.4041,-1.0598 25.7842,-0.9098 1.0497,-0.1199 3.2293,-0.13 3.2393,-0.25 18.1759,-0.9098 5.0688,-0.4299 35.0921,-1.5196 0.15,-0.02 6.2986,-0.18 59.7365,-2.1295 v 0.07 l 0.02,0.3499 1.7396,49.4589 4.0991,106.626 0.05,1.1997 0.13,3.6792 -0.11,0.01 1.4497,35.522 0.1299,1.5496 0.34,13.1871 0.1499,1.5496 0.19,3.9191 0.3899,12.8871 0.01,0.16 0.09,2.9593 0.03,0.9398 0.1899,5.2988 0.01,0.04 0.9098,23.7347 0.15,2.4294 0.2299,5.9387 0.02,0.5699 0.05,1.3597 0.04,1.6496 -0.02,0.16 0.02,0.3399 0.06,1.6796 v 0.01 l 0.23,6.2886 0.09,1.3097 0.8798,25.8742 0.17,3.9391 0.3099,9.2179 0.4899,12.7371 0.8298,21.2253 1.3097,33.8224 0.5699,15.7964 0.8498,23.5247 0.11,3.1293 0.2399,6.7885 0.24,4.119 0.3099,9.5479 0.5799,12.4672 -26.3441,0.8998 -16.3563,0.6698 -0.4199,0.06 -34.1023,1.0898 -60.8164,2.0695 -0.3899,0.05 -0.9497,-0.06 -9.6279,0.4799 -0.9498,-0.06 -30.793,0.8498 -20.2555,0.4899 -0.8998,-24.4845 0.06,-2.2495 -0.2899,-4.6089 0.02,-1.0198 -0.22,-6.8584 -0.5799,-19.1057 -1.6196,-52.2783 -0.04,-0.2199 -0.4399,-12.8971 -0.2499,-6.4286 -0.2,-6.5085 -0.2099,-6.3586 -0.01,-0.1799 -0.7299,-23.3948 0.04,-0.3199 -0.08,-2.0795 -0.1299,-5.1289 -0.6599,-19.7955 0.08,-1.7796 -0.16,-5.6288 -1.3896,-39.0912 -0.28,-8.4381 0.05,-0.8098 -1.1397,-28.6635 -0.5599,-12.2773 0.03,-1.1997 -0.17,-11.3574 -0.2199,-4.759 -1.8896,-53.158 0.03,-0.4899 -0.7099,-26.3741 -0.09,-0.4199 -1.2298,-38.5413 -1.3596,-38.8912"
     fill-rule="evenodd" />
  <path
     style="font-style:normal;font-weight:400;font-size:32.8125px;font-family:'MS Shell Dlg 2';fill:#e3e3e3;fill-opacity:0.97254902;stroke:#000000;stroke-width:5;stroke-linecap:square;stroke-linejoin:round;stroke-opacity:1"
     id="Johnson"
     vector-effect="none"
     d="m 1299.4019,280.39726 0.02,-0.67285 23.4348,0.29894 54.6977,0.18395 23.2847,-0.11597 6.3086,0.002 v -0.38291 l 10.4376,0.11397 1.3197,-0.11797 19.9156,0.17196 22.7049,0.12297 15.6664,-0.10597 30.7331,-0.077 17.5161,0.14297 10.5276,-0.36192 1.6996,0.11897 23.9746,-0.094 0.24,-0.003 2.1495,-0.013 36.6217,-0.35492 -0.02,-2.2395 79.952,-1.14874 -0.11,-0.75983 38.4913,-0.25194 15.8664,-0.65185 0.6899,19.20467 -1.9196,0.076 0.8198,96.94418 1.0198,60.29643 1.6496,-0.028 0.23,14.55872 1.2297,47.74825 1.7196,93.42998 -2.7194,0.083 0.9798,87.87922 0.3199,2.40446 1.0898,55.70246 -19.7456,0.52889 -119.993,2.35946 -22.8648,0.66685 -57.697,0.4569 -135.5695,0.64286 0.04,-3.54321 -0.11,-24.71543 -0.9198,-0.09 -0.1999,-75.57899 0.09,-2.20951 -0.2799,-2.45544 -0.01,-4.0371 0.1,-2.54742 -0.15,-29.57635 -4.519,0.075 -0.2299,-25.7952 -0.08,-0.59386 -0.08,-12.31023 -0.4299,-97.87898 0.08,-1.66462 -0.1,-16.0234 -0.03,-2.2025 -5.8787,0.032 0.34,-70.87405 -1.8496,-0.20195 -0.7099,0.30793 -0.7998,0.65485 -1.3297,-1.25571 -0.07,-0.28894 0.07,-1.89457 0.9098,-0.78083 -0.4799,-0.68484 -0.7198,-0.52489 -1.0998,-0.30393 -0.6598,0.034 -0.7798,-0.26594 -1.3697,0.23794 -1.1998,-1.35069 0.1,-1.97356 -1.1897,-1.55265 -1.6996,-0.12597 -1.1398,-0.4489 -0.1399,-0.35692 0.3899,-0.96778 -0.31,-0.65586 v -0.69284 l 0.8698,-1.13075 0.35,-1.3147 3.7791,-0.75183 1.2597,-1.71961 0.4499,-0.15297 1.3797,-1.54065 0.6599,-0.26094 -0.5799,-0.52589 -0.4399,-0.95178 0.03,-0.59487 -0.3199,-0.26594 -1.6797,-0.22395 -0.8298,-0.25994 -1.0197,-0.70584 0.3399,-1.11675 -0.02,-0.75283 0.4299,-0.62086 -0.13,-0.84381 0.22,-0.21295 0.08,-1.22373 -0.16,-0.28593 0.4199,-0.57987 0.8398,-0.41891 0.2699,-1.54365 -0.6298,-0.63086 -0.7298,-1.36769 -0.8799,-0.82081 -0.04,-0.4669 -0.8499,-1.08076 -1.0897,-0.10297 -1.1497,0.71184 -0.8199,1.46767 -1.3996,0.16896 -0.28,-0.31293 -1.8496,-0.13197 0.22,-1.53966 -0.22,-0.61686 -0.1399,-2.33647 -0.29,-1.70362 -0.2399,-0.37691 -0.12,-1.10475 0.4299,-1.12575 0.1,-1.20173 -0.7098,-0.46689 -0.5199,-1.11875 -0.05,-1.83759 0.2899,-0.93479 0.8598,-0.64285 -0.05,-0.55088 -1.0097,-0.75683 1.1797,-2.78537 -0.6799,-1.98156 -1.5396,0.57887 -1.0498,0.069 -1.5596,-0.77583 -0.4699,-1.01877 -0.6799,-0.17196 -0.02,1.02077 -0.8598,1.55365 -1.8795,0.96078 -0.8898,-0.10297 -1.2598,0.21995 -1.4996,0.45989 -1.1997,0.83682 -1.1598,-0.38692 -0.8798,-0.60786 -0.8298,0.10997 -1.1597,-0.56387 -1.0498,-1.97355 -0.8698,-0.72984 -0.6699,-0.097 -1.5296,-0.75883 -1.5497,0.31493 -0.3999,-0.56887 -1.5296,-0.29293 -0.11,-0.4609 0.5399,-0.17996 0.8698,-1.54765 -0.9098,-0.9028 -0.3699,-0.65985 -0.8798,0.23395 -1.4397,0.024 -0.9898,-0.52988 -0.9898,0.30393 -1.0897,-0.092 -0.9398,0.56688 -0.7099,-0.4429 -0.5698,-1.05077 -0.06,-0.67085 -0.5599,-0.37991 0.4999,-1.38869 -0.2299,-0.64685 0.6098,-0.41091 0.22,-0.76783 -0.36,-0.55187 0.4499,-0.15397 -0.2099,-0.72584 0.4899,-0.94878 -0.7299,-1.48967 -0.8498,-1.10175 -0.1899,-0.62986 2.1395,-0.49389 0.4399,-1.81359 v -1.03976 l -0.4399,-1.39269 -0.02,-0.97078 1.3997,-2.01555 -1.6496,-1.93556 -0.6899,-0.61786 -1.6196,-0.42391 -1.4297,-0.65285 -0.5399,-1.36969 -0.6298,-0.51989 -0.22,-1.21672 -1.3297,-0.97478 -1.8796,-1.67563 -0.5698,-0.18495 -0.02,-0.69985 0.5898,-0.78382 0.7999,-1.68562 -0.4999,-1.80859 -1.0398,-0.4479 -0.8198,-0.81982 -0.16,-1.60964 0.1,-1.85558 -0.2799,-0.22295 -1.1798,1.69762 -0.9098,0.39991 -0.6498,-0.02 -0.6599,-0.52088 -2.9993,-0.36692 -0.8398,-0.23494 -0.5799,-1.3687 -1.0997,-0.38891 -0.4699,-0.4259 0.1,-1.45168 -0.9998,-1.00977 -0.6899,-1.10875 -1.9295,-0.84681 0.5598,-0.62386"
     fill-rule="evenodd" />
  <path
     style="font-style:normal;font-weight:400;font-size:32.8125px;font-family:'MS Shell Dlg 2';fill:#e3e3e3;fill-opacity:0.97254902;stroke:#000000;stroke-width:5;stroke-linecap:square;stroke-linejoin:round;stroke-opacity:1"
     id="Uinta"
     vector-effect="none"
     d="m 62.251665,1776.2826 0.80072,-19.9855 0.842111,-21.0253 0.06279,-1.5696 0.0015,-0.04 0.594566,-15.1566 1.308906,-33.3925 0.412907,-7.5883 2.656202,-64.0855 0.812217,-19.6056 0.241546,-6.3586 154.22679,6.0087 0.4119,0.02 1.3737,0.04 79.49111,2.7394 1.06875,0.11 20.31743,0.7898 72.06278,2.5594 4.95689,-0.08 -1.73961,50.4086 -0.66985,27.0439 -0.10797,0.9198 -2.2535,77.1127 -2.29048,84.251 -0.48589,18.9557 -24.70144,-0.5198 -1.38069,0.2099 -37.87048,-0.6398 -4.33203,-0.4299 -10.75957,-0.2 -31.45292,-0.6199 -42.1975,-1.2897 -13.17403,-1.1597 -1.97256,-0.07 -20.64135,-0.7098 -36.52079,-1.2897 -4.98287,-0.27 -7.05842,-0.3799 -38.47834,-1.6196 -2.46144,-0.1 -54.582324,-2.3695 -4.349421,-0.1999 2.820665,-70.4142"
     fill-rule="evenodd" />
  <path
     style="font-style:normal;font-weight:400;font-size:32.8125px;font-family:'MS Shell Dlg 2';fill:#e3e3e3;fill-opacity:0.97254902;stroke:#000000;stroke-width:5;stroke-linecap:square;stroke-linejoin:round;stroke-opacity:1"
     id="Weston"
     vector-effect="none"
     d="m 2039.1855,535.43487 -1.9796,-93.93386 0.3699,0.014 1.2397,-0.20295 2.0396,-0.032 21.7051,-0.77283 173.6009,-6.92944 21.2252,-0.99478 6.3286,-0.31793 2.3495,0.23795 100.9873,-3.36824 0.6298,17.57704 3.2793,90.76758 -0.02,0.69684 1.2597,37.13364 v 0 l 1.6396,41.04576 0.2,5.00988 0.05,1.48266 2.8094,72.94659 0.01,0.15096 0.08,1.85159 0.29,9.27991 0.9997,24.69044 -1.5396,0.17696 -45.8597,1.82159 -16.2263,0.71984 -54.0879,1.96856 -1.1797,0.039 -106.716,3.71316 -0.6298,0.14497 -48.5791,2.07453 -32.5927,1.05576 -25.9041,1.06576 -0.02,-0.68184 -0.27,-1.07976 -2.8193,-106.1761 -0.35,-32.67765 -0.05,-6.26959 -0.8498,0.064 -1.4196,-62.29198"
     fill-rule="evenodd" />
  <path
     style="font-style:normal;font-weight:400;font-size:32.8125px;font-family:'MS Shell Dlg 2';fill:#e3e3e3;fill-opacity:0.97254902;stroke:#000000;stroke-width:5;stroke-linecap:square;stroke-linejoin:round;stroke-opacity:1"
     id="Carbon"
     vector-effect="none"
     d="m 1113.2838,1577.6573 0.02,-2.4094 59.9065,0.7898 80.5719,0.5798 -0.09,-37.0516 1.5297,-0.01 0.03,-10.6676 0.07,-29.5134 -0.01,-0.1299 0.5498,-114.6742 -6.1486,-0.01 -0.1399,-38.6213 0.06,-38.9313 -0.01,-77.0426 172.7112,0.06 19.7255,-0.08 9.2879,0.01 94.9987,0.4299 0.2099,0.06 181.5492,-3.4193 0.8098,-0.02 1.8496,154.6652 1.0997,40.6209 0.15,2.8093 -0.1,0.4899 0.11,2.2095 0.2699,19.3457 0.15,2.1595 -0.03,4.9989 -0.03,0.4699 0.18,9.1979 0.1099,1.8896 0.4899,37.0716 0.07,0.7499 0.2699,17.3161 0.06,1.3497 2.0196,100.6073 0.13,6.6485 1.9195,60.4864 -46.8794,1.2397 -0.03,-0.5598 -38.5214,0.4599 0.11,5.5687 0.08,3.4192 0.21,17.896 2.3794,149.6463 -22.025,-0.6398 -1.8596,0.01 -13.207,-0.1 h -2.1795 l -0.7299,-0.07 -4.8289,0.02 -136.3893,0.9298 -48.2391,-0.07 -38.9913,0.2999 -42.2505,0.28 -20.8453,-0.02 h -5.0188 l -16.7663,-0.03 -87.1803,0.3799 -22.205,-0.04 -76.6728,-0.2599 1.3397,-176.7503 -4.289,-0.03 0.6398,-114.0144"
     fill-rule="evenodd" />
  <path
     style="font-style:normal;font-weight:400;font-size:32.8125px;font-family:'MS Shell Dlg 2';fill:#e3e3e3;fill-opacity:0.97254902;stroke:#000000;stroke-width:5;stroke-linecap:square;stroke-linejoin:round;stroke-opacity:1"
     id="Crook"
     vector-effect="none"
     d="m 2030.0675,242.62876 -0.12,-1.95056 -0.7098,-27.0959 -1.1497,-45.37379 1.8595,0.049 0.8898,0.15197 -0.3299,-38.03844 -0.6099,0.015 -1.4896,-57.921762 12.1472,-0.319329 0.05,-9.99e-4 4.1291,-0.08578 1.8996,-0.06839 0.3299,-0.05729 80.5019,-1.709115 1.6596,0.0034 10.6376,-0.520283 19.4656,-0.187658 0.4099,-0.125071 61.5062,-1.768502 0.09,-0.0032 69.9242,-2.277787 61.1763,-1.869379 2.6194,54.819855 -0.05,3.5682 1.8296,44.23405 v 0.12197 l 0.3199,8.35912 0.4299,11.44842 0.03,0.13297 0.4099,10.27569 0.06,2.95033 0.09,1.13475 0.8298,22.45694 1.1597,31.40394 0.4599,12.38621 0.4199,11.46242 v 0.16596 l 2.6594,68.34662 0.8499,21.73111 1.1397,29.54135 1.4597,31.12 -100.9873,3.36824 -2.3495,-0.23795 -6.3286,0.31793 -21.2252,0.99478 -173.6009,6.92944 -21.7051,0.77283 -2.0396,0.032 -1.2397,0.20295 -0.3699,-0.014 -0.9298,0.028 -0.9098,-14.72069 -0.2999,-3.36224 -0.5699,-27.29186 -0.16,-0.50988 0.2,-0.62586 -0.1,-2.39147 -0.1299,-1.54865 -1.0098,-37.15264 -0.11,-1.33869 -0.4099,-23.30576 0.1,-1.15374 -0.08,-0.77283 -0.7998,-43.1023 -1.0998,-0.016 -0.8298,-41.60764"
     fill-rule="evenodd" />
  <path
     style="font-style:normal;font-weight:400;font-size:32.8125px;font-family:'MS Shell Dlg 2';fill:#e3e3e3;fill-opacity:0.97254902;stroke:#000000;stroke-width:5;stroke-linecap:square;stroke-linejoin:round;stroke-opacity:1"
     id="Hot_Springs"
     vector-effect="none"
     d="m 670.37051,607.7106 13.07206,0.14897 0.036,-1.14874 45.13084,0.92179 12.82511,-0.48989 0.55588,-9.13595 0.37991,-29.70431 27.90172,0.20995 1.92957,0.20995 28.41061,0.4469 -0.41591,-38.53032 40.11597,0.52888 0.42191,-39.62509 42.82236,0.66285 1.3417,-0.088 33.73541,0.56388 19.5166,0.069 -0.18196,39.32715 20.14447,0.13897 -1.23272,39.67007 38.87625,0.4359 -0.34492,12.65616 0.13697,0.96678 -0.084,5.28081 -0.94879,0.63886 0.92479,0.69684 -0.03,5.09285 19.11576,0.11298 1.9695,-0.11698 4.9189,-0.003 4.0591,-0.27493 2.7094,-0.026 2.2395,0.19796 1.5196,-0.053 1.6797,0.034 2.0395,-0.24694 -0.7698,1.63163 -0.4199,1.21573 -1.0398,1.21772 -0.1,1.24672 -0.4599,0.97678 -1.1197,0.62086 -0.7998,0.76383 -0.6799,2.11952 0.25,0.43391 1.0397,0.057 0.5199,-1.41868 0.7198,0.063 0.27,0.40591 1.5196,1.20373 0.8399,0.35292 3.1192,0.48389 1.0798,0.92579 0.05,0.4289 -0.7498,0.39191 55.7874,0.59387 0.6599,-0.11097 14.3167,0.12797 -0.2599,38.11342 78.0524,0.37292 -0.2199,39.16218 26.8639,-0.19095 12.4472,-0.017 -0.08,64.84141 -0.04,13.01707 -182.6889,-0.10798 -0.07,4.92389 -4.709,-0.098 -0.1899,0.002 -54.18883,-0.48689 0.091,-6.39056 -38.80327,-0.49988 0.14597,-12.9081 -38.78727,-0.49789 0.16196,-13.09805 -35.04811,-0.32893 -3.62619,-0.039 0.39591,-19.44362 -20.4324,-0.13797 -18.44285,-0.32893 0.19896,-13.27801 -19.95351,0.057 -18.88975,-0.42391 0.004,-6.45854 -77.13064,-1.62564 0.73183,-35.512 -0.61486,-0.26195 -0.69084,-0.72083 -0.85381,-0.018 -1.30071,-0.91579 -0.13397,-0.9208 -1.51266,-0.75583 -0.71384,-1.02676 -1.46667,-0.44091 -0.29493,-0.26094 -0.8918,-1.3367 -0.17196,-1.03476 -0.75283,-1.56465 -1.84959,-1.86958 0.066,-1.14274 -0.59287,-0.97078 0.13497,-1.04477 -0.36292,-1.03577 -0.89979,-1.45067 -0.65386,-0.49889 -0.59286,-1.85658 -2.07754,-2.77138 -0.016,-0.58486 -0.4609,-0.53888 -1.17573,-2.90435 -0.55288,-0.98278 -1.19473,-1.61663 -0.38991,-0.79483 -0.60287,-0.009 -0.51488,-0.41691 -0.8818,-0.24794 -1.29871,-0.75383 -0.50389,-0.56988 0.10398,-0.61186 -0.48089,-0.53088 -2.69739,-1.21872 -1.85659,-0.40091 -0.64685,-0.86781 -0.76883,-1.49966 -0.59686,-0.79982 -0.35492,-1.55365 -0.40791,-0.53588 -0.51889,-1.81759 -0.10097,-1.26472 -0.33493,-0.62486 -0.10397,-1.27871 -1.17074,-0.57687 -0.65385,-0.94079 -0.56388,-0.26594 -0.63685,-0.92279 -1.41868,0.61786 -1.17374,-0.16296 -1.30471,0.082 -0.60986,-0.36792 -0.75483,-0.94479 -1.29771,-0.57687 -1.22872,0.12898 -0.58887,-0.39592 -0.47589,-1.24971 -0.088,-0.98678 -0.32893,-0.32293 0.023,-0.70884"
     fill-rule="evenodd" />
  <path
     style="font-style:normal;font-weight:400;font-size:32.8125px;font-family:'MS Shell Dlg 2';fill:#e3e3e3;fill-opacity:0.97254902;stroke:#000000;stroke-width:5;stroke-linecap:square;stroke-linejoin:round;stroke-opacity:1"
     id="Lincoln"
     vector-effect="none"
     d="m 79.587164,1333.7722 0.610563,-15.0266 0.200455,-5.3988 1.524656,-38.3514 1.208528,-30.6131 8e-4,-0.02 0.936889,-22.9148 1.897873,-46.4296 0.188258,-3.9991 1.442275,-30.6831 1.541353,-29.3534 0.198756,-3.7891 1.534754,-29.2434 2.209603,-60.1265 0.288235,-7.8482 1.436177,-35.05714 0.200455,-4.8939 0.06359,-1.59864 0.02579,-0.64785 0.109275,-2.49044 0.121073,-3.35925 0.315229,-8.73903 0.26624,-7.38334 0.0079,-0.31493 0.03589,-1.43168 0.09098,-0.8758 0.0047,-0.11797 0.02789,-0.69984 0.03049,-1.27672 0.245945,-5.41978 0.03699,-1.44067 0.02769,-0.74184 0.142667,-3.80214 0.08668,-2.45145 0.09268,-2.61741 0.03219,-0.91579 0.07928,-1.84859 1.765603,-45.41878 0.04209,-1.08375 0.0104,-0.26694 -0.0081,-0.051 0.138169,-3.21628 0.105676,-2.14451 0.09188,-2.82937 0.08038,-2.16251 1.912569,-51.48841 25.10035,0.91279 12.96308,0.4599 -0.036,1.09775 37.14764,1.20073 -0.20695,5.18083 -1.09276,29.99325 28.69254,1.07876 48.15017,1.64263 -1.64963,48.63906 -3.07931,-0.034 0.018,0.54388 -1.37069,37.7915 -0.30293,0.034 -1.60364,51.91631 -1.08976,36.16386 -0.8848,28.4436 -11.76035,-0.4199 -1.08876,30.8031 10.99153,0.4299 -3.04132,93.7989 -0.36392,8.4081 -0.44889,10.1377 -0.19296,4.379 15.46452,0.5099 -1.92957,72.2837 -0.10397,4.0291 38.72928,0.2 -0.088,1.6996 44.13807,1.5596 1.03976,-0.08 2.37347,0.1299 24.80642,0.4899 -0.21196,2.6194 4.11708,0.04 1.25172,0.04 0.32992,0.05 h 0.014 l 45.04986,1.3197 -3.25427,107.3258 -0.23494,7.0585 -0.049,1.4596 -0.059,1.7696 2.6594,0.12 -0.34092,11.6874 -1.88658,64.8654 -3.76015,114.6942 -4.95689,0.08 -72.06278,-2.5594 -20.31743,-0.7898 -1.06876,-0.11 -79.49111,-2.7394 -1.37369,-0.04 -0.4119,-0.02 -154.226792,-6.0087 3.382739,-89.05 8e-4,-0.02 3.758354,-98.9077 2.345372,-62.8359 0.114774,-2.8893"
     fill-rule="evenodd" />
  <path
     style="font-style:normal;font-weight:400;font-size:32.8125px;font-family:'MS Shell Dlg 2';fill:#e3e3e3;fill-opacity:0.97254902;stroke:#000000;stroke-width:5;stroke-linecap:square;stroke-linejoin:round;stroke-opacity:1"
     id="Platte"
     vector-effect="none"
     d="m 1987.2271,1144.8947 11.8674,-0.2099 0.9898,-0.11 24.1045,-1.1698 2.5195,0.13 16.0064,-1.0098 12.8671,-0.4199 h 1.4096 l 28.2137,-0.9398 6.5285,-0.2999 2.5595,0.13 12.6671,-0.3399 2.6394,-0.16 0.24,-0.08 7.2783,-0.2899 5.5688,-0.3799 0.8498,-0.23 14.4767,-0.4899 1.2397,0.03 16.2264,-0.4799 39.6911,-0.9897 1.3596,38.8912 1.2298,38.5413 0.09,0.4199 0.7099,26.3741 -0.03,0.4899 1.8896,53.158 0.2199,4.759 0.17,11.3574 -0.03,1.1997 0.5599,12.2773 1.1397,28.6635 -0.05,0.8098 0.28,8.4381 1.3896,39.0912 0.16,5.6288 -0.08,1.7796 0.6599,19.7955 0.1299,5.1289 0.08,2.0795 -0.04,0.3199 0.7299,23.3948 0.01,0.1799 0.2099,6.3586 0.2,6.5085 0.2499,6.4286 0.4399,12.8971 0.04,0.2199 1.6196,52.2783 0.5799,19.1057 -45.7797,1.3396 -0.2099,0.04 -17.5361,0.3 -145.4572,2.4194 -1.1598,-38.0514 2.3895,-0.07 -0.7499,-33.2425 -0.5198,-25.0744 -0.08,-0.9698 -1.2397,-49.5588 -0.4199,-5.2088 -0.34,-4.1791 -1.0097,-36.4218 -2.4595,0.03 -1.4797,-59.2667 -1.6796,-61.956 -0.8198,-8.888 -0.5899,-22.6849 0.5499,0.02 -1.2297,-29.5934 -0.19,-1.3197 0.06,-2.8493 -1.9096,-44.0801"
     fill-rule="evenodd" />
  <path
     style="font-style:normal;font-weight:400;font-size:32.8125px;font-family:'MS Shell Dlg 2';fill:#e3e3e3;fill-opacity:0.97254902;stroke:#000000;stroke-width:5;stroke-linecap:square;stroke-linejoin:round;stroke-opacity:1"
     id="Sweetwater"
     vector-effect="none"
     d="m 407.28172,1406.5258 0.049,-1.4596 0.23494,-7.0585 3.25427,-107.3258 17.10415,0.7898 1.84858,0.2 81.47967,3.9591 1.20673,-0.03 1.3177,0.05 66.2011,2.3894 14.01785,0.5399 1.3317,0.13 7.5503,0.12 32.54967,0.5198 0.85081,0.07 22.05704,0.4899 0.30293,0.03 59.64757,1.1698 1.3467,0.09 25.7712,0.35 31.05001,0.5598 83.39524,1.4697 54.43574,0.7198 31.09801,0.21 33.98335,0.2899 70.40212,1.0698 0.2,-0.01 162.3934,1.2497 37.2716,-0.1 -0.06,38.9313 0.1399,38.6213 6.1486,0.01 -0.5498,114.6742 0.01,0.1299 -0.07,29.5134 -0.03,10.6676 -1.5297,0.01 0.09,37.0516 -80.5719,-0.5798 -59.9065,-0.7898 -0.02,2.4094 -0.6398,114.0144 4.289,0.03 -1.3397,176.7503 -43.2603,-0.26 -45.4897,0.3799 -23.4447,-0.04 -16.74026,-0.15 -63.66368,-0.6599 -4.02309,-0.05 -8.78502,0.13 -35.26407,-0.6798 -85.43977,-1.1998 -56.02539,-1.1897 -41.73361,-0.8498 -19.67457,-0.9098 -6.33957,0.3399 -84.41101,-0.9398 -11.56739,0.17 -2.96134,-0.07 -7.22337,-0.1899 -7.1034,-0.18 -30.48014,-0.7998 h -0.072 l -10.77257,-0.22 -1.8026,-0.03 -0.51788,0.02 -5.7557,-0.1199 -5.39679,-0.11 -35.74396,-0.7399 -0.33692,0.01 -40.58487,-1.2297 -8.21315,0.03 -0.29393,-0.02 h -0.003 l -1.94456,-0.2599 -14.17781,-0.28 0.48589,-18.9557 2.29048,-84.251 2.2535,-77.1127 0.10797,-0.9198 0.66985,-27.0439 1.73961,-50.4086 3.76015,-114.6942 1.88658,-64.8654 0.34092,-11.6874 -2.6594,-0.12 0.059,-1.7696"
     fill-rule="evenodd" />
  <path
     style="font-style:normal;font-weight:400;font-size:32.8125px;font-family:'MS Shell Dlg 2';fill:#e3e3e3;fill-opacity:0.97254902;stroke:#000000;stroke-width:5;stroke-linecap:square;stroke-linejoin:round;stroke-opacity:1"
     id="Washakie"
     vector-effect="none"
     d="m 919.17651,452.83346 14.18581,0.24594 0.31793,-0.048 122.75635,1.26172 10.8476,0.077 52.0883,0.4479 1.8395,-0.06 1.6497,0.089 3.2692,-0.02 59.9365,0.26594 2.9494,0.64685 2.1695,0.007 7.1084,0.04 99.3576,-0.58087 0.7499,0.081 11.6274,-0.055 61.3361,0.80881 5.8787,-0.032 0.03,2.20251 0.1,16.02339 -0.08,1.66462 0.4299,97.87898 0.08,12.31023 0.08,0.59386 0.2299,25.7952 4.519,-0.075 0.15,29.57635 -0.1,2.54742 0.01,4.0371 0.2799,2.45544 -0.09,2.20951 0.1999,75.57899 0.9198,0.09 0.11,24.71543 -3.2493,-0.082 -1.4997,0.11198 -33.0025,0.014 -1.2098,0.052 -0.05,-0.50988 -46.0097,0.009 -1.1797,0.058 -16.2764,-0.048 -1.3896,-0.10197 -6.4186,-0.011 -8.0482,0.071 -6.1586,0.071 -2.3795,0.12197 -11.1575,-0.036 -19.5855,-0.04 0.08,-64.84141 -12.4472,0.017 -26.8639,0.19095 0.2199,-39.16218 -78.0524,-0.37292 0.2599,-38.11342 -14.3167,-0.12797 -0.6599,0.11097 -55.7874,-0.59387 0.7498,-0.39191 -0.05,-0.4289 -1.0798,-0.92579 -3.1192,-0.48389 -0.8399,-0.35292 -1.5196,-1.20373 -0.27,-0.40591 -0.7198,-0.063 -0.5199,1.41868 -1.0397,-0.057 -0.25,-0.43391 0.6799,-2.11952 0.7998,-0.76383 1.1197,-0.62086 0.4599,-0.97678 0.1,-1.24672 1.0398,-1.21772 0.4199,-1.21573 0.7698,-1.63163 -2.0395,0.24694 -1.6797,-0.034 -1.5196,0.053 -2.2395,-0.19796 -2.7094,0.026 -4.0591,0.27493 -4.9189,0.003 -1.9695,0.11698 -19.11574,-0.11298 0.03,-5.09285 -0.92479,-0.69684 0.94879,-0.63886 0.084,-5.28081 -0.13697,-0.96678 0.34492,-12.65616 -38.87625,-0.4359 1.23272,-39.67007 -20.14447,-0.13897 0.18196,-39.32715 -19.5166,-0.069 0.54287,-39.84803"
     fill-rule="evenodd" />
  <path
     style="font-style:normal;font-weight:400;font-size:32.8125px;font-family:'MS Shell Dlg 2';fill:#e3e3e3;fill-opacity:0.97254902;stroke:#000000;stroke-width:5;stroke-linecap:square;stroke-linejoin:round;stroke-opacity:1"
     id="Natrona"
     vector-effect="none"
     d="m 1242.9646,1075.0304 13.8469,-0.03 -0.1399,-39.0512 -0.05,-2.4694 -0.02,-113.30452 -4.719,0.042 -0.04,-38.06943 0.39,0.045 -0.34,-116.02389 -5.8586,-0.05 0.02,-12.15926 0.03,-0.62686 11.1575,0.036 2.3795,-0.12197 6.1586,-0.071 8.0482,-0.071 6.4186,0.011 1.3896,0.10197 16.2764,0.048 1.1797,-0.058 46.0097,-0.009 0.05,0.50988 1.2098,-0.052 33.0025,-0.014 1.4997,-0.11198 3.2493,0.082 -0.04,3.54321 135.5695,-0.64286 57.697,-0.4569 22.8648,-0.66685 119.993,-2.35946 0.09,9.82179 1.4197,-0.053 2.3795,154.56821 -0.6199,-0.08 1.5996,65.82019 1.0498,48.97293 v 0.04 l 0.09,5.7087 0.14,7.6683 0.4699,27.5138 -1.4397,0.11 0.5698,17.9959 0.5899,-0.01 0.1,7.0084 1.2197,-0.06 0.06,1.5597 -1.6796,0.07 0.08,5.4887 0.6598,-0.01 0.08,4.829 -0.6998,0.05 1.2497,78.5824 0.7598,32.0028 -0.2599,6.3985 -181.5492,3.4193 -0.2099,-0.06 -94.9987,-0.4299 -9.2879,-0.01 -19.7255,0.08 -172.7112,-0.06 h -6.3085 l -0.02,-6.9385 -0.33,-147.9967"
     fill-rule="evenodd" />
  <path
     style="font-style:normal;font-weight:400;font-size:32.8125px;font-family:'MS Shell Dlg 2';fill:#e3e3e3;fill-opacity:0.97254902;stroke:#000000;stroke-width:5;stroke-linecap:square;stroke-linejoin:round;stroke-opacity:1"
     id="Converse"
     vector-effect="none"
     d="m 1720.1972,753.0299 19.7456,-0.52889 5.0389,-0.11397 0.4299,0.10298 25.1743,-0.50589 77.5026,-1.7736 60.0065,-1.55965 1.5196,-0.15396 15.9464,-0.28994 24.1246,-0.81482 80.4019,-2.2035 14.8767,-0.64086 25.9041,-1.06576 32.5927,-1.05576 0.3199,9.65983 1.6596,46.03364 0.31,2.84636 1.4097,52.99307 0.1,1.29271 1.7196,51.5294 -0.2799,6.2306 2.9693,97.95291 -0.07,1.6197 0.2699,8.838 0.2,0.5099 0.05,2.1295 -0.1099,2.0895 0.07,10.5976 0.08,7.8283 0.36,5.1888 -0.14,3.1193 0.4399,3.1693 0.12,6.4186 1.6496,0.05 0.8398,26.3141 -0.05,1.0598 0.18,0.8998 0.3699,10.1977 1.1897,39.1312 -7.2783,0.2899 -0.24,0.08 -2.6394,0.16 -12.6671,0.3399 -2.5595,-0.13 -6.5285,0.2999 -28.2137,0.9398 h -1.4096 l -12.8671,0.4199 -16.0064,1.0098 -2.5195,-0.13 -24.1045,1.1698 -0.9898,0.11 -11.8674,0.2099 1.9096,44.0801 -0.06,2.8493 0.19,1.3197 1.2297,29.5934 -0.5499,-0.02 -16.1063,0.5099 0.1799,5.3588 -3.1793,0.09 0.16,6.3085 -3.2893,0.22 0.22,12.5971 -3.1493,0.1 v 0.6199 l 0.7398,18.4658 0.4299,2.6794 0.4599,3.6692 -4.7089,0.18 -0.8998,0.09 -1.0398,-0.01 1.2997,11.2175 0.03,1.6496 -46.9794,1.2398 -2.9793,0.4299 -0.17,-3.2393 -3.0293,0.7698 -9.2779,-1.0297 -11.7974,0.1299 -0.07,-3.2392 -4.779,0.2499 -0.9198,-32.5627 12.1273,-0.2299 0.7798,0.02 -0.2299,-12.8971 6.3985,-0.15 -0.1799,-10.8575 -11.4574,0.1199 -0.9698,-0.09 -34.6622,0.7098 -22.7349,0.1799 -35.2721,0.5699 -0.5498,-0.1 -23.6147,0.32 -3.1293,-0.25 -38.6813,0.4499 -0.8098,0.02 0.2599,-6.3985 -0.7598,-32.0028 -1.2497,-78.5824 0.6998,-0.05 -0.08,-4.829 -0.6598,0.01 -0.08,-5.4887 1.6796,-0.07 -0.06,-1.5597 -1.2197,0.06 -0.1,-7.0084 -0.5899,0.01 -0.5698,-17.9959 1.4397,-0.11 -0.4699,-27.5138 -0.14,-7.6683 -0.09,-5.7087 v -0.04 l -1.0498,-48.97298 -1.5996,-65.82019 0.6199,0.08 -2.3795,-154.56821 -1.4197,0.053 -0.09,-9.82179"
     fill-rule="evenodd" />
  <path
     style="font-style:normal;font-weight:400;font-size:32.8125px;font-family:'MS Shell Dlg 2';fill:#89a6a1;fill-opacity:0.97254902;stroke:#000000;stroke-width:5;stroke-linecap:square;stroke-linejoin:round;stroke-opacity:1"
     id="Laramie"
     vector-effect="none"
     d="m 2002.2338,1684.7532 0.8698,-0.06 0.01,-1.5296 -3.0093,-114.9042 145.4572,-2.4194 17.5361,-0.3 0.2099,-0.04 45.7797,-1.3396 0.22,6.8584 -0.02,1.0198 0.2899,4.6089 -0.06,2.2495 0.8998,24.4845 20.2555,-0.4899 30.793,-0.8498 0.9498,0.06 9.6279,-0.4799 0.9497,0.06 0.3899,-0.05 60.8164,-2.0695 34.1023,-1.0898 0.4199,-0.06 16.3563,-0.6698 26.3441,-0.8998 0.1899,5.1488 -0.01,0.03 0.15,5.1289 0.04,0.9098 0.3499,7.4683 0.11,2.9393 1.6796,43.6202 0.23,4.539 0.1999,6.3986 v 0.04 l 0.9098,27.9238 0.28,4.189 -0.05,0.08 0.05,2.1295 0.6698,16.9262 -0.03,0.08 0.01,1.2397 1.0798,33.5525 0.06,1.9395 0.3499,11.1675 0.1899,5.9187 0.8398,19.0557 0.18,4.219 0.2699,6.5586 -0.05,0.2399 1.2297,31.9328 v 0.5499 l 0.2199,6.8685 -4.6289,0.1299 -6.4486,0.21 -6.2486,0.2399 -6.4085,0.2 -29.6634,1.0897 -0.9098,0.04 -0.1699,-0.03 -52.8381,1.8896 -32.5427,1.1198 -9.9278,0.1699 -0.03,-0.01 -34.5422,1.3297 -0.1899,0.01 -25.6143,0.9598 -32.7426,1.4597 -19.0557,0.8298 -8.6881,0.7998 -29.7333,0.8198 -105.1363,2.6694 -0.5899,0.02 -6.8584,0.17 -0.4999,-21.1653 -0.6399,0.06 -0.8098,-31.5629 -1.0398,-30.7231 -0.03,-0.1099 -0.05,-2.2795 -1.0398,-39.981 -0.7199,-22.5349 -0.5398,-28.7036"
     fill-rule="evenodd" />
  <path
     style="font-style:normal;font-weight:400;font-size:32.8125px;font-family:'MS Shell Dlg 2';fill:#e3e3e3;fill-opacity:0.97254902;stroke:#000000;stroke-width:5;stroke-linecap:square;stroke-linejoin:round;stroke-opacity:1"
     id="Niobrara"
     vector-effect="none"
     d="m 2103.461,742.42628 48.5791,-2.07453 0.6298,-0.14497 106.716,-3.71316 1.1797,-0.039 54.0879,-1.96856 16.2263,-0.71984 45.8597,-1.82159 1.5396,-0.17696 0.01,0.11498 0.4199,11.28246 0.8299,21.84408 0.6798,16.8722 v 0.084 l 1.1597,29.04347 0.4199,9.61983 0.23,3.26627 0.12,3.23627 5.1188,129.12094 4.1591,109.80023 0.1,2.0596 1.7396,44.57 0.2199,7.1783 0.1,1.3697 0.2599,8.5481 -59.7365,2.1295 -6.2986,0.18 -0.15,0.02 -35.0921,1.5196 -5.0688,0.4299 -18.1759,0.9098 -3.2393,0.25 -3.2293,0.13 -1.0497,0.1199 -25.7842,0.9098 -26.4041,1.0598 -4.509,-0.07 -9.9377,0.22 -39.6911,0.9897 -16.2264,0.4799 -1.2397,-0.03 -14.4767,0.4899 -0.8498,0.23 -5.5688,0.3799 -1.1897,-39.1312 -0.3699,-10.1977 -0.18,-0.8998 0.05,-1.0598 -0.8398,-26.3141 -1.6496,-0.05 -0.12,-6.4186 -0.4399,-3.1693 0.14,-3.1193 -0.36,-5.1888 -0.08,-7.8283 -0.07,-10.5976 0.1099,-2.0895 -0.05,-2.1295 -0.2,-0.5099 -0.2699,-8.838 0.07,-1.6197 -2.9693,-97.9529 0.2799,-6.2306 -1.7196,-51.5294 -0.1,-1.29271 -1.4097,-52.99307 -0.31,-2.84636 -1.6596,-46.03364 -0.3199,-9.65983"
     fill-rule="evenodd" />
</svg>
